<?xml version="1.0" encoding="utf-8"?>
<!-- Generator: Adobe Illustrator 19.2.1, SVG Export Plug-In . SVG Version: 6.00 Build 0)  -->
<svg version="1.1" id="Layer_1" xmlns="http://www.w3.org/2000/svg" xmlns:xlink="http://www.w3.org/1999/xlink" x="0px" y="0px"
	 viewBox="0 0 300 38" style="enable-background:new 0 0 300 38;" xml:space="preserve">
<style type="text/css">
	.st0{fill:#FFFFFF;}
</style>
<g>
	<path class="st0" d="M0.1,28.2l0-0.3l0.5,0c0.2,0,0.4,0,0.5-0.1c0.2,0,0.3-0.1,0.4-0.2c0.1-0.1,0.2-0.3,0.2-0.5
		c0.1-0.2,0.1-0.6,0.1-1l0-7.7c0-0.7-0.1-1.2-0.3-1.4c-0.2-0.3-0.6-0.4-1-0.4l-0.5,0l0-0.3l4.9,0c1.8,0,3.1,0.2,4.1,0.6
		c0.9,0.4,1.7,1.1,2.3,2c0.6,1,0.9,2,0.9,3.3c0,0.9-0.1,1.7-0.4,2.4c-0.3,0.7-0.7,1.4-1.3,1.9c-0.6,0.5-1.3,1-2.1,1.3
		c-0.8,0.3-1.8,0.5-2.9,0.5L0.1,28.2z M3.5,27.3c0.7,0.2,1.4,0.2,1.9,0.2c0.7,0,1.3-0.1,1.9-0.4c0.6-0.3,1.1-0.6,1.5-1.1
		c0.4-0.5,0.8-1,1-1.7c0.2-0.7,0.4-1.4,0.3-2.2c0-0.8-0.1-1.6-0.4-2.2c-0.2-0.7-0.6-1.2-1-1.7c-0.4-0.5-0.9-0.8-1.5-1.1
		c-0.6-0.2-1.2-0.4-1.9-0.4c-0.5,0-1.1,0.1-1.8,0.3L3.5,27.3z"/>
	<path class="st0" d="M35.5,16.7l0,4.7l2.6,0c0.4,0,0.7,0,0.9-0.1c0.2-0.1,0.4-0.2,0.6-0.3c0.1-0.1,0.2-0.3,0.3-0.5
		c0.1-0.2,0.1-0.5,0.1-0.8l0.3,0l0,4.2l-0.3,0c0-0.3-0.1-0.6-0.2-0.9c-0.1-0.2-0.2-0.4-0.3-0.5c-0.1-0.1-0.3-0.2-0.5-0.3
		c-0.2-0.1-0.5-0.1-0.9-0.1l-2.6,0l0,4c0,0.3,0,0.5,0,0.7c0,0.2,0,0.3,0.1,0.4c0.1,0.1,0.2,0.1,0.3,0.2c0.1,0,0.3,0,0.6,0l2,0
		c0.3,0,0.6,0,0.9,0c0.2,0,0.4-0.1,0.6-0.1c0.2-0.1,0.3-0.1,0.5-0.2c0.1-0.1,0.3-0.2,0.4-0.4c0.3-0.3,0.7-0.9,1.1-1.7l0.4,0l-1,3
		L32.1,28l0-0.3l0.4,0c0.1,0,0.2,0,0.4,0c0.1,0,0.2-0.1,0.3-0.1c0.1,0,0.2-0.1,0.3-0.2c0.1-0.1,0.1-0.2,0.2-0.3
		c0.1-0.2,0.1-0.6,0.1-1.2l0-7.8c0-0.8-0.1-1.2-0.2-1.4c-0.2-0.2-0.6-0.4-1.1-0.3l-0.4,0l0-0.3l9.2-0.1l0,2.6l-0.2,0
		c-0.1-0.4-0.2-0.8-0.3-1c-0.1-0.3-0.2-0.5-0.4-0.6c-0.2-0.1-0.4-0.2-0.6-0.3c-0.3,0-0.6-0.1-1-0.1L35.5,16.7z"/>
	<path class="st0" d="M72,24.5l0.3,0.1l-1,3.3L62,27.8l0-0.3l0.5,0c0.5,0,0.9-0.2,1.1-0.5c0.1-0.2,0.2-0.6,0.2-1.3l0-7.7
		c0-0.7-0.1-1.2-0.3-1.4c-0.2-0.3-0.6-0.4-1-0.4l-0.5,0l0-0.3l5.4,0l0,0.3c-0.3,0-0.6,0-0.8,0.1c-0.2,0-0.4,0.1-0.5,0.1
		c-0.1,0.1-0.2,0.1-0.3,0.2c-0.1,0.1-0.1,0.2-0.2,0.3c-0.1,0.2-0.1,0.6-0.1,1.4l0,7.5c0,0.4,0,0.7,0.1,0.9c0.1,0.2,0.2,0.3,0.4,0.4
		c0.2,0.1,0.6,0.1,1.4,0.1l0.9,0c0.9,0,1.6-0.1,1.9-0.2c0.2-0.1,0.4-0.2,0.5-0.3c0.2-0.1,0.3-0.3,0.5-0.5c0.2-0.2,0.3-0.4,0.5-0.7
		C71.7,25.2,71.9,24.8,72,24.5"/>
	<path class="st0" d="M147.9,15.3l0,2.8l-0.2,0c-0.1-0.8-0.3-1.3-0.7-1.6c-0.3-0.3-0.9-0.5-1.5-0.5l-1.7,0l0.1,9.2
		c0,0.4,0,0.7,0.1,1c0.1,0.2,0.1,0.4,0.2,0.5c0.1,0.1,0.2,0.2,0.4,0.2c0.2,0,0.3,0,0.6,0l0.4,0l0,0.3l-5.1,0l0-0.3l0.4,0
		c0.2,0,0.4,0,0.6-0.1c0.2,0,0.3-0.1,0.4-0.2c0.1-0.1,0.2-0.3,0.2-0.5c0.1-0.2,0.1-0.5,0.1-0.9l-0.1-9.2l-1.4,0c-0.4,0-0.7,0-1,0.1
		c-0.3,0.1-0.5,0.2-0.7,0.3c-0.2,0.2-0.4,0.4-0.5,0.6c-0.1,0.3-0.2,0.6-0.2,1l-0.3,0l0-2.8L147.9,15.3z"/>
	<path class="st0" d="M174.2,23.1l-4.6,0l-0.8,1.9c-0.2,0.5-0.3,0.8-0.3,1c0,0.1,0,0.2,0,0.3c0,0.1,0.1,0.2,0.2,0.2
		c0.1,0.1,0.2,0.1,0.4,0.2c0.2,0,0.4,0.1,0.7,0.1l0,0.3l-3.8,0l0-0.3c0.3,0,0.5-0.1,0.7-0.2c0.2-0.1,0.3-0.2,0.5-0.4
		c0.1-0.2,0.3-0.4,0.4-0.6c0.1-0.2,0.2-0.6,0.4-0.9l4.2-9.9l0.3,0l4.2,9.9c0.2,0.4,0.3,0.7,0.5,1c0.1,0.2,0.3,0.4,0.5,0.6
		c0.2,0.1,0.3,0.2,0.5,0.3c0.2,0.1,0.4,0.1,0.7,0.1l0,0.3l-4.7,0l0-0.3c0.5,0,0.8-0.1,1-0.2c0.2-0.1,0.3-0.3,0.3-0.5
		c0-0.3-0.1-0.7-0.4-1.2L174.2,23.1z M174,22.5l-2.1-4.8l-2.1,4.9L174,22.5z"/>
	<path class="st0" d="M208.3,23.6l0.3,0.1l-1,3.3l-9.3,0.1l0-0.3l0.5,0c0.5,0,0.9-0.2,1.1-0.5c0.1-0.2,0.2-0.6,0.2-1.3l0-7.7
		c0-0.7-0.1-1.2-0.3-1.4c-0.2-0.3-0.6-0.4-1-0.4l-0.5,0l0-0.3l5.4,0l0,0.3c-0.3,0-0.6,0-0.8,0.1c-0.2,0-0.4,0.1-0.5,0.1
		c-0.1,0.1-0.3,0.1-0.3,0.2c-0.1,0.1-0.1,0.2-0.2,0.3c-0.1,0.2-0.1,0.6-0.1,1.4l0,7.5c0,0.4,0,0.7,0.1,0.9c0.1,0.2,0.2,0.3,0.4,0.4
		c0.2,0.1,0.6,0.1,1.4,0.1l0.9,0c0.9,0,1.6-0.1,1.9-0.2c0.2-0.1,0.4-0.2,0.5-0.3c0.2-0.1,0.3-0.3,0.5-0.5c0.2-0.2,0.3-0.4,0.5-0.7
		C208,24.3,208.1,24,208.3,23.6"/>
	<path class="st0" d="M238.2,23.4l0.3,0.1l-1,3.3l-9.3,0.1l0-0.3l0.5,0c0.5,0,0.9-0.2,1.1-0.5c0.1-0.2,0.2-0.6,0.2-1.3l0-7.7
		c0-0.7-0.1-1.2-0.3-1.4c-0.2-0.3-0.6-0.4-1-0.4l-0.5,0l0-0.3l5.4,0l0,0.3c-0.3,0-0.6,0-0.8,0.1c-0.2,0-0.4,0.1-0.5,0.1
		c-0.1,0.1-0.3,0.1-0.3,0.2c-0.1,0.1-0.1,0.2-0.2,0.3c-0.1,0.2-0.1,0.6-0.1,1.4l0,7.5c0,0.4,0,0.7,0.1,0.9c0.1,0.2,0.2,0.3,0.4,0.4
		c0.2,0.1,0.6,0.1,1.4,0.1l0.9,0c0.9,0,1.6-0.1,1.9-0.2c0.2-0.1,0.4-0.2,0.5-0.3c0.2-0.1,0.3-0.3,0.5-0.5c0.2-0.2,0.3-0.4,0.5-0.7
		C237.9,24.1,238.1,23.8,238.2,23.4"/>
	<path class="st0" d="M261.5,15.3l0,4.7l2.6,0c0.4,0,0.7,0,0.9-0.1c0.2-0.1,0.4-0.2,0.6-0.3c0.1-0.1,0.2-0.3,0.3-0.5
		c0.1-0.2,0.1-0.5,0.1-0.8l0.3,0l0,4.2l-0.3,0c0-0.3-0.1-0.6-0.2-0.9c-0.1-0.2-0.2-0.4-0.3-0.5c-0.1-0.1-0.3-0.2-0.5-0.3
		c-0.2-0.1-0.5-0.1-0.9-0.1l-2.6,0l0,4c0,0.3,0,0.5,0,0.7c0,0.2,0,0.3,0.1,0.4c0.1,0.1,0.2,0.1,0.3,0.2c0.1,0,0.3,0,0.6,0l2,0
		c0.3,0,0.6,0,0.9,0c0.2,0,0.4-0.1,0.6-0.1c0.2-0.1,0.3-0.1,0.5-0.2c0.1-0.1,0.3-0.2,0.4-0.4c0.3-0.3,0.7-0.9,1.1-1.7l0.4,0l-1,3
		l-9.2,0.1l0-0.3l0.4,0c0.1,0,0.2,0,0.4,0c0.1,0,0.2-0.1,0.3-0.1c0.1,0,0.2-0.1,0.3-0.2c0.1-0.1,0.1-0.2,0.2-0.3
		c0.1-0.2,0.1-0.6,0.1-1.2l0-7.8c0-0.8-0.1-1.2-0.2-1.4c-0.2-0.2-0.6-0.4-1.1-0.3l-0.4,0l0-0.3l9.2-0.1l0,2.6l-0.2,0
		c-0.1-0.4-0.2-0.8-0.3-1c-0.1-0.3-0.2-0.5-0.4-0.6c-0.2-0.1-0.4-0.2-0.6-0.3c-0.3,0-0.6-0.1-1-0.1L261.5,15.3z"/>
	<path class="st0" d="M300,26.4l-3.2,0l-4.1-5.6c-0.2,0-0.3,0-0.4,0c-0.1,0-0.2,0-0.3,0c-0.1,0-0.2,0-0.3,0c-0.1,0-0.2,0-0.3,0
		l0,3.5c0,0.4,0,0.8,0.1,1c0.1,0.2,0.1,0.4,0.3,0.5c0.1,0.1,0.2,0.2,0.4,0.2c0.2,0,0.3,0,0.5,0l0.5,0l0,0.3l-5.1,0l0-0.3l0.5,0
		c0.5,0,0.9-0.2,1.1-0.5c0.1-0.2,0.2-0.6,0.2-1.3l0-7.7c0-0.7-0.1-1.2-0.3-1.4c-0.2-0.3-0.6-0.4-1-0.4l-0.5,0l0-0.3l4.4,0
		c0.6,0,1.2,0,1.7,0.1c0.5,0,0.8,0.1,1.1,0.2c0.3,0.1,0.6,0.2,0.8,0.4c0.3,0.2,0.5,0.4,0.7,0.6c0.2,0.2,0.4,0.5,0.5,0.8
		c0.1,0.3,0.2,0.6,0.2,1c0,0.7-0.2,1.4-0.7,1.9c-0.5,0.5-1.2,0.9-2.2,1.2l2.5,3.4c0.3,0.4,0.5,0.7,0.8,1c0.2,0.3,0.5,0.5,0.7,0.6
		c0.2,0.1,0.5,0.3,0.7,0.3c0.3,0.1,0.5,0.1,0.9,0.2L300,26.4z M291.5,20.3c0.1,0,0.2,0,0.3,0c0.1,0,0.2,0,0.2,0
		c0.6,0,1.1-0.1,1.5-0.2c0.4-0.1,0.8-0.3,1.1-0.6c0.3-0.2,0.5-0.5,0.6-0.8c0.1-0.3,0.2-0.7,0.2-1c0-0.4-0.1-0.7-0.2-1
		c-0.1-0.3-0.3-0.6-0.5-0.8c-0.2-0.2-0.5-0.4-0.8-0.5c-0.3-0.1-0.7-0.2-1-0.2c-0.4,0-0.8,0.1-1.4,0.2L291.5,20.3z"/>
	<path class="st0" d="M119.6,4.3c0.2,0.1,0.2,0.2,0.3,0.4c0,0.1,0,0.3,0,0.6c0,0.1,0,0.3,0,0.4c0,0.1-0.1,0.2-0.3,0.3
		c-0.1,0.1-0.2,0.3-0.4,0.3c-0.1,0.1-0.3,0.1-0.6,0.1c-0.3,0-0.5,0-0.6,0.1c-0.1,0.1-0.3,0.1-0.6,0.1c-0.1,0.1-0.3,0.2-0.4,0.4
		c-0.1,0.1-0.2,0.3-0.3,0.6V9v7.7v2.1V23v3.5c0,0.2,0,0.5,0,0.8c0,0.3-0.1,0.6-0.3,0.8c-0.2,0.2-0.5,0.3-0.9,0.3
		c-0.4,0-0.7-0.1-0.9-0.3c-0.2-0.2-0.3-0.5-0.2-0.7c0-0.3,0.1-0.6,0.1-0.9c-0.1-0.3-0.2-0.7-0.1-1.2c0-0.5,0-0.9-0.1-1.4
		c0-0.2,0-0.4,0-0.7c0-0.3,0.1-0.5,0.2-0.9c0-0.1,0-0.2,0-0.3c0,0-0.1-0.1-0.2-0.3c-0.2-0.3-0.2-0.6-0.1-0.9
		c0.1-0.2,0.2-0.5,0.3-0.7v-0.3c-0.1-0.1-0.2-0.2-0.2-0.3c0-0.1,0-0.2,0-0.4c0-0.1,0.1-0.3,0.1-0.4c0-0.1,0.1-0.3,0.1-0.5
		c-0.1-0.1-0.2-0.3-0.2-0.5c0-0.2,0-0.4,0-0.7c0.1-0.5,0.2-0.9,0.1-1.3c-0.1-0.4-0.1-0.8-0.1-1.3c0-0.1,0-0.2,0.1-0.4
		c0.1-0.1,0.1-0.3,0.1-0.5c-0.1-0.2-0.1-0.6-0.1-1.2c0-0.6-0.1-1.2-0.1-1.9c0-0.7,0-1.3,0-1.9V7.6c0-0.4-0.1-0.6-0.3-0.8
		c-0.2-0.1-0.5-0.2-0.9-0.2c-0.2,0-0.4,0-0.5-0.1c-0.1-0.1-0.3-0.1-0.6-0.1c0,0-0.1,0-0.1-0.1c0,0,0-0.1-0.1-0.1
		c-0.4-0.1-0.9-0.3-1.3-0.6c-0.3,0-0.6,0-1-0.1c-0.2-0.2-0.4-0.3-0.6-0.4c-0.2-0.1-0.4-0.2-0.6-0.4c-0.2-0.1-0.4-0.1-0.6-0.1
		c-0.2,0-0.3-0.1-0.5-0.1c-0.1,0-0.1-0.1-0.2-0.1c-0.1,0-0.1-0.1-0.2-0.1h-0.1v0c-0.1,0-0.1-0.1-0.2-0.1c-0.1,0-0.1-0.1-0.2-0.1
		c-0.2,0-0.4-0.1-0.6-0.3c-0.1,0-0.2,0-0.3-0.1c-0.1,0-0.2,0-0.3-0.1c-0.2,0-0.4-0.1-0.6-0.2c-0.2-0.1-0.4-0.1-0.7-0.2
		c0,0-0.1,0-0.3-0.1c-0.2-0.1-0.2-0.1-0.3-0.1c-0.3,0.2-0.5,0.3-0.7,0.3l-0.1,0.2c0,0.2-0.1,0.4-0.3,0.5c-0.2,0.1-0.4,0.2-0.6,0.3
		c0,0-0.1,0.1-0.1,0.1c-0.1,0-0.2,0-0.2,0c-0.2-0.2-0.4-0.3-0.6-0.4c-0.2-0.1-0.4-0.3-0.5-0.5c0-0.2,0-0.3,0-0.4
		c0-0.1,0-0.3,0.1-0.4c0.1-0.1,0.1-0.2,0.2-0.3c0.1-0.1,0.1-0.1,0.2-0.2c0.1-0.1,0.2-0.2,0.3-0.4c0.1-0.1,0.3-0.2,0.5-0.3
		c0.1-0.1,0.2-0.2,0.4-0.3c0.1-0.1,0.3-0.1,0.4-0.2c0,0,0,0,0,0c0.1,0,0.1-0.1,0.2-0.1c0,0,0.1,0,0.2,0c0.2-0.1,0.4-0.1,0.7-0.2
		c0.3-0.1,0.5-0.1,0.8-0.1c0.4,0,0.7,0,1,0c0.3,0,0.6,0.1,0.8,0.2c0.5,0.1,0.9,0.3,1.4,0.7c0.1,0,0.2,0.1,0.3,0.2c0.1,0,0.3,0,0.5,0
		c0.2,0.1,0.3,0.2,0.4,0.4c0.2,0,0.4,0.1,0.5,0.1c0.2,0.1,0.3,0.1,0.5,0.2c0.2,0.1,0.3,0.2,0.5,0.3c0.2,0.1,0.4,0.2,0.6,0.2
		c0.1,0,0.2,0.1,0.4,0.1c0.2,0.1,0.4,0.1,0.6,0.2c0.1,0,0.2,0.1,0.3,0.1c0.1,0,0.2,0,0.2,0.1c0.2,0,0.4,0.1,0.5,0.1
		c0.2,0,0.4,0.1,0.6,0.1h0.9c0.2,0.1,0.4,0.1,0.7,0.1c0.2,0,0.4,0,0.7,0.1h0.2c0.1,0,0.2-0.1,0.3-0.1c0.1,0,0.2-0.1,0.3-0.1
		c0.2,0,0.3,0,0.5,0.1c0.1,0.1,0.2,0.1,0.3,0.1h0.2c0.2,0,0.3-0.1,0.5-0.1c0.2,0,0.3-0.1,0.4-0.1c0.2,0,0.4,0,0.7,0.1
		c0.2,0.1,0.5,0.1,0.7,0.1c0.1,0.1,0.2,0.2,0.3,0.3C119.6,4.1,119.6,4.1,119.6,4.3 M101,2.5c0.1-0.1,0.1-0.1,0.2-0.1l-0.1-0.1
		L101,2.5z M101.3,3.2c-0.1,0.1,0,0.1,0.1,0.1c0,0,0.1,0,0.1,0L101.3,3.2z M102.6,2.2c-0.1,0.1-0.2,0.1-0.2,0.1c0,0-0.1,0-0.1-0.1
		l0.1,0.2l-0.1,0.1l0,0.1v0l0.1,0.1l0.1-0.3V2.3L102.6,2.2z M103.4,1.6c0,0,0.1,0,0.1,0c0.1,0,0.1,0,0.2,0.1
		c-0.1-0.2-0.2-0.3-0.2-0.3c0,0-0.1,0-0.2,0.1l-0.1,0.1c0.1,0.1,0.1,0.2,0.1,0.2C103.3,1.7,103.3,1.7,103.4,1.6 M106.4,3.2
		C106.5,3.2,106.5,3.1,106.4,3.2c0.1,0,0.1-0.1,0-0.2c0,0,0,0,0,0.1L106.4,3.2L106.4,3.2z M106.9,2.3c-0.1,0-0.1,0-0.2,0.1l0,0
		l0.1,0V2.3z M108.7,3L108.7,3l-0.1-0.1h0v0c-0.1,0.2-0.1,0.3-0.2,0.3h0.1L108.7,3z M109.4,3.8c0,0,0,0.1,0.1,0.1
		c0.1,0.1,0.2,0.1,0.3,0.1L109.4,3.8z M110.4,4.7l-0.1-0.3l-0.2,0.1l0,0.2L110.4,4.7z M111.9,3.6C111.9,3.6,111.9,3.6,111.9,3.6
		C111.9,3.6,111.8,3.6,111.9,3.6L111.9,3.6L111.9,3.6z M112.4,5.2C112.4,5.2,112.4,5.3,112.4,5.2c0,0.1,0.1,0.1,0.1,0.1
		c0,0,0,0,0.1-0.1H112.4z M113.1,4.7c0-0.1,0-0.2,0-0.2c0,0-0.1,0-0.2,0v0.2H113.1z M113.3,5.5h-0.2c0,0,0.1,0,0.1,0
		c0.1,0,0.1,0.1,0.1,0.2V5.5z M114,5c0.2,0,0.2,0,0.3,0c0,0,0-0.1,0-0.2c-0.2,0-0.2,0-0.3,0C114,4.8,114,4.8,114,5 M114.3,5.5
		c-0.1,0-0.2,0-0.1,0.1c0,0,0.1,0.1,0.1,0.1V5.5z M114.3,5.2c0.1,0.1,0.2,0.2,0.2,0.2c0,0,0-0.1,0-0.2c-0.1-0.1-0.2-0.2-0.2-0.2
		C114.3,5,114.3,5.1,114.3,5.2 M114.7,5.2h0.3c0-0.1,0-0.1,0-0.2c0-0.1-0.1-0.1-0.1-0.1l-0.1-0.2V5.2z M114.7,6.2
		c0,0,0.1-0.1,0.1-0.1c0-0.1,0-0.2-0.1-0.3V6.2z M115.1,23.7C115.1,23.8,115.1,23.8,115.1,23.7c-0.1,0.1-0.1,0.2-0.2,0.2h0.5
		c0,0,0,0,0-0.1C115.3,23.7,115.3,23.7,115.1,23.7c0.2,0,0.2,0,0.3,0c0,0,0-0.1,0-0.2c0,0.1,0,0.1,0,0.1
		C115.4,23.7,115.3,23.7,115.1,23.7 M115.4,8c-0.1,0-0.1-0.1-0.1-0.1c-0.1,0-0.1,0-0.1,0.1C115,8,115,8,115,8c0,0,0-0.1-0.1-0.2V8
		v0.3c0.1,0,0.2,0,0.3,0c0.1,0,0.1-0.1-0.1-0.2H115.4z M114.9,15.3c0.1,0.1,0.1,0.2,0.2,0.2c0,0,0-0.1,0-0.2H114.9z M115.1,20.4
		c0,0.1,0,0.2,0,0.3c0,0-0.1,0.1-0.2,0.2h0.2l0.3-0.2v-0.3H115.1z M115,5c0.1,0,0.2,0,0.2,0c0,0,0-0.1,0-0.2H115V5z M115.4,22.5
		c0.1,0,0.2,0,0.2,0c0,0,0-0.1,0-0.2l-0.5,0.2v0.2c0-0.1,0-0.2,0.1-0.2C115.3,22.5,115.4,22.5,115.4,22.5 M116.1,24.4h-0.2
		c-0.1,0.1-0.1,0.1-0.1,0.2c0,0,0,0.1,0,0.1c0,0,0,0.1,0.1,0.1c0,0,0,0.1,0,0.1h-0.5c-0.1,0.1-0.1,0.1-0.1,0.2c0,0.1,0,0.1,0,0.2
		c0,0.1,0,0.1,0,0.2c0,0.1-0.1,0.1-0.1,0.2h0.3c0.1,0,0.1-0.1,0.1-0.2c0-0.1-0.1-0.2-0.1-0.3h0.2c0.1,0,0.2,0,0.3-0.1
		c0,0,0-0.1,0-0.1h0.2v-0.2V24.4z M115.8,12.3C115.8,12.3,115.8,12.3,115.8,12.3c-0.1-0.2-0.1-0.2-0.2-0.2c0.1,0,0.2,0,0.2,0
		c0,0,0-0.1,0-0.2c0,0,0,0.1,0,0.1c0,0.1-0.1,0.1-0.2,0.1c0,0,0,0.1,0,0.1c0,0.1-0.1,0.1-0.2,0.1H115.8z M115.4,6.6
		c0-0.1,0-0.1,0.1-0.2c0,0,0.1,0,0.1,0h-0.2V6.6z M115.9,8.4V8.3c-0.2,0.1-0.3,0.1-0.4,0.1c-0.1,0-0.1,0-0.1,0.1h0.2H115.9z
		 M115.4,9.4c0.1,0.1,0.2,0.2,0.2,0.2c0,0,0-0.1,0-0.2H115.4z M115.4,16.9c0.1,0,0.1,0,0.2,0.1c0,0,0,0.1,0,0.1v-0.2H115.4z
		 M115.6,22.8c-0.1,0-0.1,0-0.2,0.1c0,0,0,0.1,0,0.1c0,0.1,0,0.2,0,0.2c0,0,0.1,0,0.2,0V23V22.8z M115.6,13.6c0,0.1,0,0.2,0,0.2
		c0,0,0.1,0,0.2,0v-0.2v-0.3c-0.1,0-0.1,0-0.1,0.1C115.6,13.5,115.6,13.6,115.6,13.6 M115.9,5c0,0.1-0.1,0.2-0.2,0.1
		c-0.1,0-0.2,0-0.2,0.1c0,0,0.1,0,0.1,0C115.9,5.1,115.9,5.1,115.9,5c0.1,0,0.1,0,0.2,0c0,0,0-0.1,0-0.2c-0.1,0-0.1,0-0.1,0.1
		C116,4.9,115.9,4.9,115.9,5 M115.7,10.4c0,0,0,0.1,0,0.1c0,0.1,0.1,0.1,0.1,0.1C115.8,10.5,115.8,10.5,115.7,10.4
		C115.7,10.4,115.7,10.4,115.7,10.4 M116.1,6C116.2,6,116.2,6,116.1,6c0.1-0.1,0.1-0.1,0.1-0.1h-0.1c0,0,0,0,0-0.1
		c0-0.1-0.1-0.1-0.1-0.1v0.2h0.2V6z M116.1,7.5c0-0.1,0-0.2,0-0.2c0,0-0.1,0-0.2,0v0.2l0.1,0.2L116.1,7.5z M115.9,12.7
		c0,0,0.1,0,0.1,0.1c0,0,0,0.1,0,0.1v-0.3H115.9z M116.1,19.7c0-0.1,0-0.1-0.1-0.2c0,0-0.1,0-0.1,0v0.2H116.1z M115.9,19.9
		c0,0.1,0,0.1,0,0.1c0,0.1,0.1,0.1,0.1,0.1C116.1,20.1,116.1,20,115.9,19.9C116,19.9,116,19.9,115.9,19.9 M116.1,20.9
		c0-0.1,0-0.2,0-0.2c0,0-0.1,0-0.2,0v0.2l0.1,0.2L116.1,20.9z M116.1,26c0-0.1,0-0.1-0.1-0.2c0,0-0.1,0-0.1,0V26H116.1z M116.4,6.1
		C116.4,6.1,116.4,6,116.4,6.1C116.4,6,116.4,6,116.4,6.1C116.4,6,116.4,6.1,116.4,6.1 M116.8,6.2c0-0.1,0.1-0.2,0.2-0.3
		c0.1,0,0.1-0.1,0-0.2h0.2c0,0,0-0.1,0-0.1c0-0.1-0.1-0.1-0.2-0.1v0.2c-0.1,0-0.2,0-0.2,0.1C116.9,5.9,116.8,6,116.8,6.2 M118,5.2
		c-0.1,0-0.2,0-0.2,0.1c0,0,0,0.1,0,0.1h0.2V5.2z M118.2,4.5c-0.1,0-0.2,0-0.2,0c0,0,0,0.1,0,0.2h0.2V4.5z M118.6,5.5
		c0,0,0,0.1,0,0.1c0,0.1-0.1,0.1-0.3,0.1h0.3V5.5z"/>
	<path class="st0" d="M104.9,7.5c0.5,0,1,0.1,1.5,0.2c0.5,0.1,1,0.2,1.5,0.3h0.2c0.2,0.1,0.4,0.2,0.6,0.4c0.2,0.1,0.4,0.3,0.6,0.5
		c0.2,0.2,0.3,0.4,0.5,0.6c0.1,0.2,0.2,0.5,0.3,0.8c0.4,0.6,0.6,1.2,0.7,1.8c0.1,0.6,0.1,1.2,0.1,1.8c0,0.1,0,0.2-0.1,0.4
		c-0.1,0.1,0,0.3,0.1,0.6V17v1c-0.1,0.1-0.2,0.2-0.2,0.3c0,0.1,0.1,0.2,0.2,0.2v1.5c-0.1,0.1-0.2,0.3-0.2,0.5c0,0.2,0.1,0.4,0.2,0.5
		c0,0.1,0,0.3,0,0.5c0,0.2-0.1,0.4-0.2,0.5c0,0.1,0,0.3,0.1,0.5c0.1,0.2,0.1,0.4,0.1,0.5c0,0.6,0,1.2-0.2,1.7
		c-0.1,0.5-0.2,1.1-0.3,1.7c0,0.3-0.1,0.6-0.3,0.9c-0.2,0.3-0.3,0.6-0.5,0.8c-0.1,0.1-0.3,0.3-0.5,0.5c-0.2,0.2-0.5,0.3-0.7,0.3
		h-0.2c-0.2,0.2-0.4,0.3-0.6,0.4c-0.2,0.1-0.4,0.1-0.7,0.2c-0.2,0-0.5,0.1-0.7,0.1c-0.2,0-0.5,0.1-0.7,0.1c-0.2,0-0.5,0-0.8-0.1
		c-0.3-0.1-0.6,0-1,0.1c-0.1,0-0.3-0.1-0.5-0.2c-0.2-0.1-0.5-0.2-0.7-0.3l-0.3-0.3c0.1-0.2,0.2-0.4,0.1-0.6
		c-0.1-0.2-0.1-0.4-0.1-0.6v-1v-2.7c-0.1-0.5-0.2-1-0.1-1.4c0.1-0.5,0.1-0.9,0.1-1.3c0-0.3,0-0.5-0.1-0.6c0-0.1,0.1-0.3,0.3-0.4
		v-0.2c-0.3-0.3-0.4-0.5-0.3-0.7c0-0.2,0.1-0.5,0.1-0.7V18c-0.1-0.4-0.2-0.8-0.1-1.2c0.1-0.4,0.1-0.8,0.1-1.3v-0.3v-0.8
		c-0.1-0.2-0.2-0.4-0.2-0.6c0-0.2,0.1-0.4,0.2-0.7V9.9c0-0.2,0-0.5-0.1-0.7c0-0.2,0.1-0.5,0.3-0.8V8.2c0-0.1,0-0.2,0-0.3
		c0,0,0.1-0.1,0.2-0.2c0.1,0,0.3,0,0.5-0.1c0.2-0.1,0.4-0.1,0.5-0.1H104.9z M103.4,14.5c-0.1,0-0.2,0.1-0.2,0.2c0,0,0,0.1,0,0.1
		c0,0.1,0,0.2-0.1,0.2c0,0-0.1,0-0.1,0v0.2c0.1,0,0.2,0,0.2-0.1c0,0,0-0.1,0-0.1v-0.3L103.4,14.5v0.3V14.5h0.2H103.4z M103.1,9.6
		h-0.2H103.1V9.4h0.2c0,0.1,0,0.2,0,0.2c0,0,0.1,0,0.2,0c0-0.1,0-0.1-0.1-0.2c0,0-0.1,0-0.1,0h-0.2V9.6z M103.1,19.2
		c-0.1,0-0.2,0-0.2,0c0,0,0,0.1,0,0.2h0.2V19.2V19V19.2z M102.9,26.6v-0.3l0.2,0.3c0-0.1,0-0.2,0-0.1c0,0.1-0.1,0-0.2-0.1V26.6z
		 M103.1,16.8V17h0.2c0-0.1,0-0.1-0.1-0.1C103.2,16.9,103.1,16.9,103.1,16.8 M103.6,21.4l0-0.2L103.6,21.4h-0.3v-0.2h-0.2v0.2h0.3
		H103.6z M103.1,23.6h0.2c0-0.1,0-0.2,0-0.2c0,0-0.1,0-0.2,0L103.1,23.6z M103.1,28h0.2c0-0.1,0-0.1-0.1-0.2c0,0-0.1,0-0.1,0
		L103.1,28z M103.1,17.5h0.2H103.1z M103.4,12.6h0.3c0-0.1,0-0.2-0.1-0.2c0,0-0.1,0-0.1,0C103.3,12.4,103.2,12.5,103.4,12.6
		C103.3,12.6,103.3,12.6,103.4,12.6 M103.4,19.7v0.2V19.7z M103.6,21.9c-0.1,0-0.2,0-0.2,0c0,0,0,0.1,0,0.2h0.3V21.9z M103.9,22.4
		v-0.2c-0.1,0-0.2,0-0.2,0c0,0,0,0.1,0,0.2h-0.3h0.3H103.9z M103.9,26.3c-0.1,0-0.2,0-0.3,0c0,0-0.1-0.1-0.3-0.2v0.2
		c0,0,0.1,0,0.1,0c0.1,0,0.1,0.1,0.1,0.2c0,0,0.1,0,0.1,0C103.8,26.5,103.9,26.4,103.9,26.3 M103.6,19.4c0.1-0.1,0.2-0.2,0.1-0.3
		c-0.1-0.1-0.1-0.2-0.1-0.4h0.2h-0.2h0.3v-0.3h0.2h-0.2v0.3h-0.2c-0.1,0.1-0.2,0.2-0.1,0.4C103.6,19.2,103.6,19.3,103.6,19.4
		 M103.6,13.3C103.6,13.3,103.6,13.3,103.6,13.3l0.1-0.2C103.5,13.2,103.5,13.2,103.6,13.3 M103.6,10.4h0.2H103.6z M103.9,12.1h-0.2
		c0,0.1,0,0.2,0,0.2c0,0,0.1,0,0.2,0V12.1z M103.9,17.5h-0.2v0.2c0.1,0,0.2,0,0.2,0C103.9,17.7,103.9,17.6,103.9,17.5 M103.9,20.2
		c0-0.1,0-0.2,0-0.2c0,0-0.1,0-0.2,0v0.2H103.9z M103.6,26.8h0.2c0,0,0.1,0,0.1,0c0.1,0,0.1-0.1,0.1-0.2h-0.2v0.2H103.6v0.2
		c0.1,0.1,0.1,0.2,0.1,0.2c0,0-0.1,0-0.1,0c0,0.1,0,0.2,0,0.2c0,0,0.1,0.1,0.2,0.3h0.3h0.5v-0.3c-0.1,0-0.2,0-0.3,0
		c-0.1,0-0.1,0.1-0.1,0.2h-0.3c0-0.1,0-0.3,0-0.4c0-0.1-0.1-0.2-0.2-0.4V26.8z M103.9,15.1c-0.1,0-0.1,0-0.1,0c0,0,0,0.1,0.1,0.2
		L103.9,15.1z M103.9,9.4V9.1C103.9,9.3,103.9,9.3,103.9,9.4c0,0,0.1,0,0.2,0H103.9z M104.2,10.8C104.2,10.8,104.1,10.8,104.2,10.8
		c-0.1-0.2-0.2-0.2-0.3-0.2v0.2H104.2z M104.1,15.8l-0.2-0.2v0.2H104.1z M104.3,10.1h-0.2c0.1,0,0.1,0,0.2,0.1c0,0,0,0.1,0,0.1V10.1
		z M104.3,10.4h-0.2c0,0.1,0,0.2,0.1,0.2c0,0,0.1,0,0.1,0V10.4z M104.3,9.1V8.9V8.6V8.4v0.2c-0.1,0-0.2,0-0.2,0.2
		c0,0.1,0.1,0.2,0.2,0.2V9.1z M104.6,24.1c0.1,0.1,0.1,0.2,0.1,0.3c0,0.1,0,0.2,0,0.3s0,0.2,0,0.3c0,0.1,0.1,0.2,0.1,0.3
		c0,0.2,0.1,0.4,0.3,0.7c0.2,0.2,0.3,0.4,0.5,0.5h0.2c0.1-0.1,0.2-0.2,0.2-0.1c0,0.1,0.1,0,0.2-0.1c0.3,0,0.5,0,0.7-0.1
		c0.2-0.1,0.4-0.2,0.5-0.3c0.1-0.2,0.3-0.5,0.4-0.7c0.1-0.3,0.2-0.5,0.2-0.7c0-0.4,0-0.8-0.1-1.2c-0.1-0.5,0-0.9,0.1-1.2v-0.2
		c-0.1-0.2-0.1-0.4-0.1-0.6c0-0.2,0-0.4,0.1-0.5c0-0.2,0.1-0.3,0.1-0.5c0-0.2,0-0.3-0.1-0.4v-1.2v-2.9v-1.2v-0.2v-1
		c0-0.1,0-0.3,0-0.5c0-0.2-0.1-0.4-0.2-0.5c-0.3-1.2-1-1.7-2.2-1.4c-0.2,0-0.5,0.1-0.7,0.3c-0.2,0.2-0.3,0.5-0.3,0.9
		c0.1,0.4,0.2,0.8,0.2,1.2c0,0.4-0.1,0.8-0.2,1.2c0,0.1,0,0.2,0.1,0.3c0.1,0.1,0.1,0.3,0.1,0.4c-0.1,0.1-0.2,0.2-0.1,0.3
		c0.1,0.1,0.1,0.2,0.1,0.3v1c0,0.1,0,0.2,0,0.3c0,0.1-0.1,0.3-0.2,0.4c-0.1,0.1-0.1,0.2,0,0.4c0.2,0.1,0.2,0.2,0.2,0.3
		c-0.1,0.5-0.2,1-0.1,1.6c0,0.6,0,1.1-0.1,1.6v0.2c0.1,0.1,0.2,0.3,0.2,0.4c0,0.1,0,0.3,0,0.6c-0.1,0.2-0.2,0.5-0.1,0.7
		C104.8,23.6,104.7,23.9,104.6,24.1 M104.9,8.4V8.2C104.9,8.2,104.8,8.3,104.9,8.4c-0.1,0-0.2,0-0.3,0H104.9z M104.9,8.9v0.2
		c-0.1,0-0.2,0-0.2,0c0,0,0,0.1,0,0.2c0.2,0,0.2,0,0.2,0c-0.1,0,0-0.1,0.2-0.2c-0.1,0-0.2,0-0.2,0C104.7,9.1,104.7,9,104.9,8.9h-0.3
		H104.9z M104.9,27.3v-0.2h-0.3c0,0,0,0.1,0,0.1C104.7,27.3,104.7,27.3,104.9,27.3 M104.9,9.6c0,0.1,0,0.2,0,0.2c0,0,0.1,0,0.2,0
		c0-0.1,0-0.2-0.1-0.2C104.9,9.6,104.9,9.6,104.9,9.6 M105.6,9.1h-0.2c0,0.1,0,0.2,0,0.2c0,0,0.1,0,0.2,0V9.1z M106.1,9.1
		C106.1,9.2,106.1,9.2,106.1,9.1c0,0.1,0.1,0.1,0.2,0C106.2,9.1,106.1,9,106.1,9.1C106.1,9.1,106.1,9.1,106.1,9.1 M106.3,8.9h0.3
		h0.2c0,0,0,0.1,0,0.1c0,0.1,0.1,0.1,0.2,0.1V8.9c0-0.1,0-0.2-0.1-0.1c0,0-0.1,0.1-0.1,0.1h-0.2H106.3z M106.8,27.5h-0.2H106.8v-0.2
		V27.5z M107.3,9.6h-0.3H107.3z M107.3,26.8v0.2l-0.3,0.2v-0.2c0.1,0,0.2,0,0.2,0C107.3,27,107.3,26.9,107.3,26.8h0.2H107.3z
		 M107.6,8.9v0.2h-0.2L107.6,8.9z M107.8,9.9h-0.3c0.1,0.1,0.2,0.2,0.1,0.2c-0.1,0,0,0,0.1,0V9.9z M108.1,26.6h-0.2v0.2h0.2V26.6z
		 M107.8,27.8c0,0.1,0,0.2,0.1,0.2c0.1,0,0.1,0,0.1-0.2H107.8z M108.6,11.8h0.2v-0.2L108.6,11.8z M109.1,13.5h0.2H109.1l-0.3-0.2
		c0,0.1,0,0.2,0.1,0.2C109,13.5,109,13.5,109.1,13.5 M109.1,10.6c0,0.1,0,0.2,0,0.2c0,0,0,0,0.1,0c0,0,0.1,0,0.1-0.1v0.2v-0.2
		c-0.1,0-0.2,0-0.2,0C109.1,10.8,109.1,10.7,109.1,10.6 M109.3,12.6h-0.2c0.1,0,0.1,0,0.2,0.1c0,0,0,0.1,0,0.1V12.6z M109.1,16.8
		v-0.2h0.2l-0.2-0.2v0.2V16.8z M109.3,19.4c0-0.1,0-0.2-0.1-0.2c-0.1,0-0.1-0.1-0.1-0.2h0.2v-0.2c-0.1,0.1-0.1,0.2-0.1,0.2
		c0,0,0,0-0.1,0c0,0.1,0,0.2,0,0.2C109.1,19.2,109.2,19.3,109.3,19.4 M109.1,20.2v-0.2h0.2h-0.2V20.2z M109.3,14.1v-0.2V14.1z
		 M109.3,18.2h0.2H109.3v0.2V18.2z M109.5,20.9h-0.2H109.5z M109.8,14.2c0,0,0-0.1,0-0.1c0,0,0-0.1,0-0.1c0-0.1-0.1-0.1-0.2-0.1
		c0,0.1,0,0.1,0.1,0.2c0,0,0.1,0,0.2,0C109.8,14.1,109.8,14.1,109.8,14.2c0,0.1,0.1,0.1,0.2,0.1C109.9,14.3,109.9,14.3,109.8,14.2
		 M109.5,15.1v0.2h0.3v0.3v-0.3h-0.3V15.1z M109.5,16.8v-0.2V16.8z M110,18c-0.1,0-0.2,0-0.2,0c0,0-0.1-0.1-0.3-0.2V18H110z
		 M109.5,21.4v-0.2V21.4v0.2V21.4z M110,16.5c0,0,0-0.1,0-0.2h-0.2v0.2C109.9,16.5,110,16.5,110,16.5"/>
	<path class="st0" d="M93.3,33.7c-0.2-0.1-0.2-0.2-0.3-0.4c0-0.1,0-0.3,0-0.6c0-0.1,0-0.3,0-0.4c0-0.1,0.1-0.2,0.3-0.3
		c0.1-0.1,0.2-0.3,0.4-0.3c0.1-0.1,0.3-0.1,0.6-0.1c0.3,0,0.5,0,0.6-0.1c0.1-0.1,0.3-0.1,0.6-0.1c0.1-0.1,0.3-0.2,0.4-0.4
		c0.1-0.1,0.2-0.3,0.3-0.6V29v-7.7v-2.1V15v-3.5c0-0.2,0-0.5,0-0.8c0-0.3,0.1-0.6,0.3-0.8c0.2-0.2,0.5-0.3,0.9-0.3
		c0.4,0,0.7,0.1,0.9,0.3c0.2,0.2,0.3,0.5,0.2,0.7c0,0.3-0.1,0.6-0.1,0.9c0.1,0.3,0.2,0.7,0.1,1.2c0,0.5,0,0.9,0.1,1.4
		c0,0.2,0,0.4,0,0.7c0,0.2-0.1,0.5-0.2,0.9c0,0.1,0,0.2,0,0.3c0,0,0.1,0.1,0.2,0.3c0.2,0.3,0.2,0.6,0.1,0.9
		c-0.1,0.2-0.2,0.5-0.3,0.7v0.3c0.1,0.1,0.2,0.2,0.2,0.3c0,0.1,0,0.2,0,0.4c0,0.1-0.1,0.3-0.1,0.4c0,0.1-0.1,0.3-0.1,0.5
		c0.1,0.1,0.2,0.3,0.2,0.5c0,0.2,0,0.4,0,0.7c-0.1,0.5-0.2,0.9-0.1,1.3c0.1,0.4,0.1,0.8,0.1,1.3c0,0.1,0,0.2-0.1,0.4
		c-0.1,0.1-0.1,0.3-0.1,0.5c0.1,0.2,0.1,0.6,0.1,1.2c0,0.6,0.1,1.2,0.1,1.9c0,0.7,0,1.3,0,1.9v1.1c0,0.4,0.1,0.6,0.3,0.8
		c0.2,0.1,0.5,0.2,0.9,0.2c0.2,0,0.4,0,0.5,0.1c0.1,0.1,0.3,0.1,0.6,0.1c0,0,0.1,0,0.1,0.1c0,0,0,0.1,0.1,0.1
		c0.4,0.1,0.9,0.3,1.3,0.6c0.3,0,0.6,0,1,0.1c0.2,0.2,0.4,0.3,0.6,0.4c0.2,0.1,0.4,0.2,0.6,0.4c0.2,0.1,0.4,0.1,0.6,0.1
		c0.2,0,0.3,0.1,0.5,0.1c0.1,0,0.1,0.1,0.2,0.1c0.1,0,0.1,0.1,0.2,0.1h0.1v0c0.1,0,0.1,0.1,0.2,0.1c0.1,0,0.1,0.1,0.2,0.1
		c0.2,0,0.4,0.1,0.6,0.3c0.1,0,0.2,0,0.3,0.1c0.1,0,0.2,0,0.3,0.1c0.2,0,0.4,0.1,0.6,0.2c0.2,0.1,0.4,0.1,0.7,0.2c0,0,0.1,0,0.3,0.1
		c0.2,0.1,0.3,0.1,0.3,0.1c0.3-0.2,0.5-0.3,0.7-0.3l0.1-0.2c0-0.2,0.1-0.4,0.3-0.5c0.2-0.1,0.4-0.2,0.6-0.3c0,0,0.1-0.1,0.1-0.1
		c0.1,0,0.2,0,0.2,0c0.2,0.2,0.4,0.3,0.6,0.4c0.2,0.1,0.4,0.3,0.5,0.5c0,0.2,0,0.3,0,0.4c0,0.1,0,0.3-0.1,0.4
		c-0.1,0.1-0.1,0.2-0.2,0.3c-0.1,0.1-0.1,0.1-0.2,0.2c-0.1,0.1-0.2,0.2-0.3,0.4c-0.1,0.1-0.3,0.2-0.5,0.3c-0.1,0.1-0.2,0.2-0.4,0.3
		c-0.1,0.1-0.3,0.1-0.4,0.2c0,0,0,0,0,0c-0.1,0-0.1,0.1-0.2,0.1c0,0-0.1,0-0.2,0c-0.2,0.1-0.4,0.1-0.7,0.2c-0.3,0.1-0.5,0.1-0.8,0.1
		c-0.4,0-0.7,0-1,0c-0.3,0-0.6-0.1-0.8-0.2c-0.5-0.1-0.9-0.3-1.4-0.7c-0.1,0-0.2-0.1-0.3-0.2c-0.1,0-0.3,0-0.5,0
		c-0.2-0.1-0.3-0.2-0.4-0.4c-0.2,0-0.4-0.1-0.5-0.1c-0.2-0.1-0.3-0.1-0.5-0.2c-0.2-0.1-0.3-0.2-0.5-0.3c-0.2-0.1-0.4-0.2-0.6-0.2
		c-0.1,0-0.2-0.1-0.4-0.1c-0.2-0.1-0.4-0.1-0.6-0.2c-0.1,0-0.2-0.1-0.3-0.1c-0.1,0-0.2,0-0.2-0.1c-0.2,0-0.4-0.1-0.5-0.1
		c-0.2,0-0.4-0.1-0.6-0.1h-0.9c-0.2-0.1-0.4-0.1-0.7-0.1c-0.2,0-0.4,0-0.7-0.1h-0.2c-0.1,0-0.2,0.1-0.3,0.1c-0.1,0-0.2,0.1-0.3,0.1
		c-0.2,0-0.3,0-0.5-0.1c-0.1-0.1-0.2-0.1-0.3-0.1H96c-0.2,0-0.3,0.1-0.5,0.1c-0.2,0-0.3,0.1-0.4,0.1c-0.2,0-0.4,0-0.7-0.1
		c-0.2-0.1-0.5-0.1-0.7-0.1c-0.1-0.1-0.2-0.2-0.3-0.3C93.3,33.9,93.3,33.9,93.3,33.7 M111.9,35.5c-0.1,0.1-0.1,0.1-0.2,0.1l0.1,0.1
		L111.9,35.5z M111.6,34.8c0.1-0.1,0-0.1-0.1-0.1c0,0-0.1,0-0.1,0L111.6,34.8z M110.3,35.8c0.1-0.1,0.2-0.1,0.2-0.1
		c0,0,0.1,0,0.1,0.1l-0.1-0.2l0.1-0.1l0-0.1v0l-0.1-0.1l-0.1,0.3v0.1L110.3,35.8z M109.5,36.4c0,0-0.1,0-0.1,0c-0.1,0-0.1,0-0.2-0.1
		c0.1,0.2,0.2,0.3,0.2,0.3c0,0,0.1,0,0.2-0.1l0.1-0.1c-0.1-0.1-0.1-0.2-0.1-0.2C109.6,36.3,109.6,36.4,109.5,36.4 M106.5,34.8
		C106.4,34.8,106.4,34.9,106.5,34.8c-0.1,0-0.1,0.1,0,0.2c0,0,0,0,0-0.1L106.5,34.8L106.5,34.8z M106,35.7c0.1,0,0.1,0,0.2-0.1l0,0
		l-0.1,0V35.7z M104.2,35L104.2,35l0.1,0.1h0v0c0.1-0.2,0.1-0.3,0.2-0.3h-0.1L104.2,35z M103.5,34.2c0,0,0-0.1-0.1-0.1
		c-0.1-0.1-0.2-0.1-0.3-0.1L103.5,34.2z M102.5,33.3l0.1,0.3l0.2-0.1l0-0.2L102.5,33.3z M101,34.4C101,34.4,101,34.4,101,34.4
		C101,34.4,101.1,34.4,101,34.4L101,34.4L101,34.4z M100.5,32.8C100.5,32.8,100.5,32.7,100.5,32.8c0-0.1-0.1-0.1-0.1-0.1
		c0,0,0,0-0.1,0.1H100.5z M99.9,33.3c0,0.1,0,0.2,0,0.2c0,0,0.1,0,0.2,0v-0.2H99.9z M99.6,32.5h0.2c0,0-0.1,0-0.1,0
		c-0.1,0-0.1-0.1-0.1-0.2V32.5z M98.9,33c-0.2,0-0.2,0-0.3,0c0,0,0,0.1,0,0.2c0.2,0,0.2,0,0.3,0C98.9,33.2,98.9,33.2,98.9,33
		 M98.6,32.5c0.1,0,0.2,0,0.1-0.1c0,0-0.1-0.1-0.1-0.1V32.5z M98.6,32.8c-0.1-0.1-0.2-0.2-0.2-0.2c0,0,0,0.1,0,0.2
		c0.1,0.1,0.2,0.2,0.2,0.2C98.6,33,98.6,32.9,98.6,32.8 M98.2,32.8H98c0,0.1,0,0.1,0,0.2c0,0.1,0.1,0.1,0.1,0.1l0.1,0.2V32.8z
		 M98.2,31.8c0,0-0.1,0.1-0.1,0.1c0,0.1,0,0.2,0.1,0.3V31.8z M97.8,14.3C97.8,14.2,97.8,14.2,97.8,14.3c0.1-0.1,0.1-0.2,0.2-0.2
		h-0.5c0,0,0,0,0,0.1C97.6,14.3,97.7,14.3,97.8,14.3c-0.2,0-0.2,0-0.3,0c0,0,0,0.1,0,0.2c0-0.1,0-0.1,0-0.1
		C97.6,14.3,97.6,14.3,97.8,14.3 M97.5,30c0.1,0,0.1,0.1,0.1,0.1c0.1,0,0.1,0,0.1-0.1c0.1,0,0.1,0,0.1,0c0,0,0,0.1,0.1,0.2V30v-0.3
		c-0.1,0-0.2,0-0.3,0c-0.1,0-0.1,0.1,0.1,0.2H97.5z M98,22.7c-0.1-0.1-0.1-0.2-0.2-0.2c0,0,0,0.1,0,0.2H98z M97.8,17.6
		c0-0.1,0-0.2,0-0.3c0,0,0.1-0.1,0.2-0.2h-0.2l-0.3,0.2v0.3H97.8z M97.9,33c-0.1,0-0.2,0-0.2,0c0,0,0,0.1,0,0.2h0.2V33z M97.5,15.5
		c-0.1,0-0.2,0-0.2,0c0,0,0,0.1,0,0.2l0.5-0.2v-0.2c0,0.1,0,0.2-0.1,0.2C97.6,15.5,97.5,15.5,97.5,15.5 M96.8,13.6H97
		c0.1-0.1,0.1-0.1,0.1-0.2c0,0,0-0.1,0-0.1c0,0,0-0.1-0.1-0.1c0,0,0-0.1,0-0.1h0.5c0.1-0.1,0.1-0.1,0.1-0.2c0-0.1,0-0.1,0-0.2
		c0-0.1,0-0.1,0-0.2c0-0.1,0.1-0.1,0.1-0.2h-0.3c-0.1,0-0.1,0.1-0.1,0.2c0,0.1,0.1,0.2,0.1,0.3h-0.2c-0.1,0-0.2,0-0.3,0.1
		c0,0,0,0.1,0,0.1h-0.2v0.2V13.6z M97.1,25.7C97.1,25.7,97.1,25.7,97.1,25.7c0.1,0.2,0.1,0.2,0.2,0.2c-0.1,0-0.2,0-0.2,0
		c0,0,0,0.1,0,0.2c0,0,0-0.1,0-0.1c0-0.1,0.1-0.1,0.2-0.1c0,0,0-0.1,0-0.1c0-0.1,0.1-0.1,0.2-0.1H97.1z M97.5,31.4
		c0,0.1,0,0.1-0.1,0.2c0,0-0.1,0-0.1,0h0.2V31.4z M97,29.6v0.2c0.2-0.1,0.3-0.1,0.4-0.1c0.1,0,0.1,0,0.1-0.1h-0.2H97z M97.5,28.6
		c-0.1-0.1-0.2-0.2-0.2-0.2c0,0,0,0.1,0,0.2H97.5z M97.5,21.1c-0.1,0-0.1,0-0.2-0.1c0,0,0-0.1,0-0.1v0.2H97.5z M97.3,15.2
		c0.1,0,0.1,0,0.2-0.1c0,0,0-0.1,0-0.1c0-0.1,0-0.2,0-0.2c0,0-0.1,0-0.2,0V15V15.2z M97.3,24.4c0-0.1,0-0.2,0-0.2c0,0-0.1,0-0.2,0
		v0.2v0.3c0.1,0,0.1,0,0.1-0.1C97.3,24.5,97.3,24.4,97.3,24.4 M97,33c0-0.1,0.1-0.2,0.2-0.1c0.1,0,0.2,0,0.2-0.1c0,0-0.1,0-0.1,0
		C97,32.9,97,32.9,97,33c-0.1,0-0.1,0-0.2,0c0,0,0,0.1,0,0.2c0.1,0,0.1,0,0.1-0.1C97,33.1,97,33.1,97,33 M97.3,27.6c0,0,0-0.1,0-0.1
		c0-0.1-0.1-0.1-0.1-0.1C97.1,27.5,97.1,27.5,97.3,27.6C97.2,27.6,97.2,27.6,97.3,27.6 M96.8,32C96.8,32,96.7,32,96.8,32
		c-0.1,0.1-0.1,0.1-0.1,0.1h0.1c0,0,0,0,0,0.1c0,0.1,0.1,0.1,0.1,0.1v-0.2h-0.2V32z M96.8,30.5c0,0.1,0,0.2,0,0.2c0,0,0.1,0,0.2,0
		v-0.2l-0.1-0.2L96.8,30.5z M97,25.3c0,0-0.1,0-0.1-0.1c0,0,0-0.1,0-0.1v0.3H97z M96.8,18.3c0,0.1,0,0.1,0.1,0.2c0,0,0.1,0,0.1,0
		v-0.2H96.8z M97,18.1c0-0.1,0-0.1,0-0.1c0-0.1-0.1-0.1-0.1-0.1C96.8,17.9,96.8,18,97,18.1C96.9,18.1,96.9,18.1,97,18.1 M96.8,17.1
		c0,0.1,0,0.2,0,0.2c0,0,0.1,0,0.2,0v-0.2l-0.1-0.2L96.8,17.1z M96.8,12c0,0.1,0,0.1,0.1,0.2c0,0,0.1,0,0.1,0V12H96.8z M96.5,31.9
		C96.5,31.9,96.5,32,96.5,31.9C96.5,32,96.5,32,96.5,31.9C96.5,32,96.5,31.9,96.5,31.9 M96.1,31.8c0,0.1-0.1,0.2-0.2,0.3
		c-0.1,0-0.1,0.1,0,0.2h-0.2c0,0,0,0.1,0,0.1c0,0.1,0.1,0.1,0.2,0.1v-0.2c0.1,0,0.2,0,0.2-0.1C96.1,32.1,96.1,32,96.1,31.8
		 M94.9,32.8c0.1,0,0.2,0,0.2-0.1c0,0,0-0.1,0-0.1h-0.2V32.8z M94.7,33.5c0.1,0,0.2,0,0.2,0c0,0,0-0.1,0-0.2h-0.2V33.5z M94.4,32.5
		c0,0,0-0.1,0-0.1c0-0.1,0.1-0.1,0.3-0.1h-0.3V32.5z"/>
</g>
</svg>
