<?xml version="1.0" encoding="utf-8"?>
<!-- Generator: Adobe Illustrator 18.1.0, SVG Export Plug-In . SVG Version: 6.00 Build 0)  -->
<svg version="1.1" id="Layer_1" xmlns="http://www.w3.org/2000/svg" xmlns:xlink="http://www.w3.org/1999/xlink" x="0px" y="0px"
	 viewBox="0 0 20 20" enable-background="new 0 0 20 20" xml:space="preserve">
<g>
	<rect x="0.2" y="0.2" fill="#FFFFFF" width="19.6" height="19.6"/>
	<g>
		<path fill="#231F20" d="M10.9,17.6c-0.1,0-2.6,0-2.7,0c0,0,0,0,0-0.1c0,0,0-0.1,0-0.1c0-2.2,0-4.5,0-6.7c0-0.1,0-0.1,0-0.2
			c0,0,0,0-0.1,0c-0.1,0-0.2,0-0.3,0c-0.5,0-0.9,0-1.4,0c0,0-0.1,0-0.1,0c0,0,0-0.1,0-0.1c0-0.2,0-0.4,0-0.6c0-0.6,0-1.2,0-1.7
			c0,0,0-0.1,0-0.1c0,0,0.1,0,0.1,0c0.5,0,1,0,1.6,0c0.1,0,0.1,0,0.2,0c0,0,0-0.1,0-0.1c0,0,0-0.1,0-0.1c0-0.6,0-1.3,0-1.9
			c0-0.2,0-0.5,0.1-0.7c0.2-1.1,0.9-1.9,1.9-2.4c0.3-0.1,0.7-0.2,1-0.2c0.4-0.1,0.8-0.1,1.3,0c0.2,0,0.5,0,0.7,0c0.2,0,0.4,0,0.5,0
			c0,0,0,0.1,0,0.1c0,0.4,0,0.8,0,1.3c0,0.3,0,0.6,0,0.9c0,0,0,0,0,0.1c0,0-0.1,0-0.1,0c-0.5,0-1,0-1.5,0c-0.1,0-0.3,0-0.4,0
			c-0.1,0-0.1,0-0.1,0c-0.2,0.1-0.3,0.2-0.4,0.4c0,0.1-0.1,0.3-0.1,0.4c0,0.1,0,0.1,0,0.2c0,0.6,0,1.1,0,1.7c0,0,0,0.1,0,0.1
			c0,0,0.1,0,0.1,0c0.3,0,0.7,0,1,0c0.5,0,1,0,1.5,0c0,0,0.1,0,0.1,0c0,0,0,0.1,0,0.1c0,0.8-0.1,1.7-0.1,2.5c0,0-0.1,0-0.1,0
			c0,0-0.1,0-0.1,0c-0.8,0-1.5,0-2.3,0c0,0-0.1,0-0.1,0c0,0.2,0,0.3,0,0.5c0,0.2,0,0.3,0,0.5c0,0.2,0,0.3,0,0.5c0,0.2,0,0.3,0,0.5
			c0,0.2,0,0.3,0,0.5c0,0.2,0,0.3,0,0.5s0,0.3,0,0.5c0,0.2,0,0.3,0,0.5c0,0.2,0,0.3,0,0.5s0,0.3,0,0.5c0,0.2,0,0.3,0,0.5
			s0,0.3,0,0.5c0,0.2,0,0.3,0,0.5c0,0.2,0,0.3,0,0.5C10.9,17.3,10.9,17.4,10.9,17.6z"/>
	</g>
</g>
</svg>
