<?xml version="1.0" encoding="utf-8"?>
<!-- Generator: Adobe Illustrator 18.1.0, SVG Export Plug-In . SVG Version: 6.00 Build 0)  -->
<svg version="1.1" id="Layer_1" xmlns="http://www.w3.org/2000/svg" xmlns:xlink="http://www.w3.org/1999/xlink" x="0px" y="0px"
	 viewBox="0 0 20 20" enable-background="new 0 0 20 20" xml:space="preserve">
<g>
	<rect x="0.2" y="0.1" fill="#FFFFFF" width="19.6" height="19.6"/>
	<g>
		<path fill="#231F20" d="M10.3,3.2c-1.5,0-2.9,0-4.4,0c-0.2,0-0.4,0-0.7,0.1C5.1,3.4,5,3.4,4.8,3.4C4.5,3.6,4.3,3.7,4,3.9
			C3.8,4.2,3.5,4.5,3.4,4.8C3.4,5,3.3,5.2,3.3,5.4c0,0.6,0,1.1,0,1.7c0,0.1,0,0.2,0,0.3c0,0.1,0,0.1,0.1,0.1c0.1,0,0.1,0,0.2,0
			c1.3,0,2.6,0,3.8,0c0.1,0,0.1,0,0.2-0.1c0.2-0.2,0.5-0.4,0.7-0.6c0.1-0.1,0.3-0.1,0.4-0.2c0.1-0.1,0.3-0.1,0.5-0.2
			c0.1,0,0.2-0.1,0.3-0.1c0.2,0,0.3,0,0.5,0c0.2,0,0.4,0,0.6,0c0,0,0.1,0,0.1,0c0.1,0,0.3,0,0.4,0.1c0.2,0,0.3,0.1,0.4,0.2
			c0.2,0.1,0.5,0.2,0.7,0.4c0.2,0.1,0.3,0.2,0.5,0.4c0.1,0.1,0.2,0.1,0.3,0.1c0.9,0,1.7,0,2.6,0c0.3,0,0.5,0,0.8,0
			c0.1,0,0.2,0,0.2-0.1c0-0.7,0-1.3,0-2c0-0.1,0-0.1,0-0.2c0-0.3-0.1-0.6-0.2-0.9c-0.1-0.2-0.2-0.4-0.4-0.6
			c-0.2-0.2-0.4-0.3-0.6-0.4c-0.2-0.1-0.4-0.1-0.6-0.1C13.3,3.2,11.8,3.2,10.3,3.2z M10.2,13C10.2,13,10.2,13,10.2,13
			C10.3,13,10.3,13,10.2,13c0.3,0,0.5-0.1,0.7-0.1c0.1,0,0.2-0.1,0.3-0.1c0.1,0,0.2-0.1,0.4-0.1c0.4-0.2,0.7-0.4,0.9-0.7
			c0.2-0.3,0.4-0.5,0.5-0.8c0-0.1,0.1-0.3,0.1-0.4c0-0.2,0.1-0.3,0.1-0.5c0-0.3,0-0.7-0.1-1c-0.1-0.2-0.1-0.4-0.2-0.6
			c-0.2-0.4-0.4-0.7-0.7-0.9c-0.2-0.2-0.5-0.3-0.7-0.5c-0.1-0.1-0.3-0.1-0.4-0.2c-0.1,0-0.3-0.1-0.4-0.1c-0.2,0-0.4,0-0.5,0
			c-0.2,0-0.5,0-0.7,0.1C9.2,7.2,8.9,7.3,8.7,7.4C8.4,7.6,8.1,7.9,7.9,8.2C7.7,8.4,7.6,8.6,7.5,8.9c0,0.1-0.1,0.3-0.1,0.4
			C7.3,9.5,7.3,9.7,7.3,9.9c0,0.4,0,0.8,0.2,1.2c0.1,0.2,0.2,0.4,0.3,0.6C8,12,8.3,12.3,8.6,12.5c0.3,0.2,0.6,0.3,0.9,0.4
			C9.8,13,10,13,10.2,13z"/>
		<path fill="#231F20" d="M10.2,16.6L10.2,16.6c1.5,0,3,0,4.5,0c0.3,0,0.5-0.1,0.7-0.2c0.3-0.1,0.5-0.3,0.7-0.6
			c0.2-0.2,0.3-0.4,0.4-0.7c0.1-0.2,0.1-0.5,0.1-0.7c0-0.8,0-1.7,0-2.5c0-1.2,0-2.4,0-3.6c0-0.1,0-0.1-0.1-0.1c-1,0-2,0-2.9,0
			c0,0,0,0-0.1,0c0,0,0,0,0,0.1c0,0.1,0.1,0.2,0.2,0.4c0.1,0.2,0.1,0.3,0.2,0.5c0,0.2,0.1,0.3,0.1,0.5c0,0.2,0,0.4,0,0.6
			c0,0.2,0,0.3-0.1,0.5c0,0.1,0,0.2-0.1,0.4c-0.1,0.2-0.1,0.3-0.2,0.5c-0.2,0.3-0.4,0.7-0.6,0.9c-0.3,0.3-0.6,0.6-1,0.8
			c-0.1,0.1-0.2,0.1-0.3,0.2c-0.1,0-0.2,0.1-0.4,0.1c-0.1,0-0.3,0.1-0.4,0.1c-0.1,0-0.2,0-0.2,0c-0.3,0-0.5,0-0.8,0
			c-0.2,0-0.3-0.1-0.5-0.1c-0.1,0-0.1,0-0.2-0.1c-0.1,0-0.2,0-0.2-0.1c-0.2-0.1-0.4-0.2-0.6-0.3c-0.3-0.2-0.5-0.4-0.8-0.6
			c-0.2-0.2-0.3-0.4-0.5-0.6c-0.2-0.3-0.3-0.5-0.4-0.8c0-0.1,0-0.2-0.1-0.2c0-0.2-0.1-0.3-0.1-0.5c0-0.2,0-0.4,0-0.5
			c0-0.2,0-0.3,0-0.5c0,0,0-0.1,0-0.1c0-0.1,0-0.2,0.1-0.3c0.1-0.2,0.2-0.4,0.2-0.6c0-0.1,0-0.1-0.1-0.1c-1.1,0-2.3,0-3.4,0
			c-0.1,0-0.1,0-0.1,0.1c0,2,0,4,0,6c0,0.3,0.1,0.7,0.3,1c0.2,0.3,0.5,0.6,0.8,0.8c0.2,0.1,0.4,0.2,0.7,0.3c0.2,0.1,0.4,0.1,0.7,0.1
			C7.2,16.6,8.7,16.6,10.2,16.6z"/>
	</g>
</g>
</svg>
