<?xml version="1.0" encoding="utf-8"?>
<!-- Generator: Adobe Illustrator 18.1.0, SVG Export Plug-In . SVG Version: 6.00 Build 0)  -->
<svg version="1.1" id="Layer_1" xmlns="http://www.w3.org/2000/svg" xmlns:xlink="http://www.w3.org/1999/xlink" x="0px" y="0px"
	 viewBox="0 0 120 34" enable-background="new 0 0 120 34" xml:space="preserve">
<g>
	<g>
		<g>
			<g>
				<path fill="#FFFFFF" d="M59.2,26.9v-1.1c-0.4,0.8-1.1,1.2-2,1.2c-0.7,0-1.3-0.2-1.7-0.7c-0.4-0.4-0.6-1-0.6-1.7
					c0-0.7,0.2-1.3,0.6-1.8c0.4-0.5,1-0.7,1.7-0.7c0.9,0,1.6,0.4,2,1.1v-1.1h0.3v4.8H59.2z M57.2,22.5c-0.6,0-1.1,0.2-1.5,0.6
					c-0.3,0.4-0.5,0.9-0.5,1.5c0,0.6,0.2,1.1,0.5,1.5c0.4,0.4,0.8,0.6,1.5,0.6c0.6,0,1.1-0.2,1.5-0.6c0.4-0.4,0.5-0.9,0.5-1.5
					c0-0.7-0.2-1.2-0.5-1.6S57.8,22.5,57.2,22.5z"/>
				<path fill="#FFFFFF" d="M57.2,27.1c-0.7,0-1.3-0.2-1.8-0.7c-0.4-0.5-0.6-1.1-0.6-1.8c0-0.7,0.2-1.4,0.6-1.8
					c0.4-0.5,1-0.7,1.8-0.7c0.9,0,1.5,0.3,1.9,0.9v-0.9h0.5v5h-0.5v-0.8C58.7,26.8,58,27.1,57.2,27.1z M57.2,22.2
					c-0.7,0-1.3,0.2-1.7,0.7c-0.4,0.4-0.6,1-0.6,1.7c0,0.7,0.2,1.2,0.6,1.7c0.4,0.5,0.9,0.7,1.6,0.7c0.9,0,1.6-0.4,1.9-1.1l0.2-0.3
					v1.3h0.2v-4.6h-0.2v1.4l-0.2-0.3C58.8,22.6,58.1,22.2,57.2,22.2z M57.2,26.8c-0.6,0-1.2-0.2-1.5-0.7c-0.3-0.4-0.5-0.9-0.5-1.6
					c0-0.6,0.2-1.2,0.5-1.6c0.4-0.4,0.9-0.7,1.5-0.7c0.7,0,1.2,0.2,1.6,0.6c0.4,0.4,0.6,0.9,0.6,1.6c0,0.6-0.2,1.1-0.6,1.6
					C58.3,26.6,57.8,26.8,57.2,26.8z M57.2,22.5c-0.6,0-1.1,0.2-1.4,0.6c-0.3,0.4-0.5,0.9-0.5,1.5c0,0.6,0.2,1.1,0.5,1.4
					c0.3,0.4,0.8,0.6,1.4,0.6c0.6,0,1.1-0.2,1.4-0.6c0.3-0.4,0.5-0.9,0.5-1.4c0-0.6-0.2-1.1-0.5-1.5C58.3,22.7,57.8,22.5,57.2,22.5z
					"/>
			</g>
			<g>
				<path fill="#FFFFFF" d="M62.2,23.3c0.1-0.2,0.3-0.4,0.5-0.6c0.4-0.3,0.9-0.5,1.6-0.5v0.3c-0.7,0-1.3,0.3-1.6,0.8
					c-0.3,0.5-0.4,1.1-0.4,1.8v1.9h-0.3v-4.7h0.3V23.3z"/>
				<path fill="#FFFFFF" d="M62.2,27h-0.5v-4.9h0.5v0.8c0.1-0.1,0.2-0.3,0.3-0.4c0.4-0.4,1-0.5,1.6-0.5h0.1v0.5h-0.1
					c-0.7,0-1.2,0.3-1.5,0.8c-0.3,0.4-0.4,1-0.4,1.7V27z M61.9,26.9h0.2v-1.8c0-0.7,0.1-1.3,0.4-1.8c0.3-0.6,0.9-0.9,1.6-0.9v-0.1
					c-0.6,0-1,0.2-1.4,0.5c-0.2,0.2-0.4,0.4-0.5,0.6l-0.2,0.4v-1.3h-0.2V26.9z"/>
			</g>
			<g>
				<path fill="#FFFFFF" d="M70.1,28.6V26c-0.4,0.7-1,1.1-2,1.1c-0.7,0-1.3-0.2-1.7-0.7c-0.4-0.5-0.6-1-0.6-1.7
					c0-0.7,0.2-1.3,0.6-1.7c0.4-0.5,1-0.7,1.7-0.7c1,0,1.6,0.4,2,1.1v-1h0.3v6.3H70.1z M69.6,23.1c-0.4-0.4-0.9-0.6-1.5-0.6
					c-0.6,0-1.1,0.2-1.4,0.6c-0.3,0.4-0.5,0.9-0.5,1.5c0,0.6,0.2,1.1,0.5,1.5c0.4,0.4,0.8,0.6,1.4,0.6c0.7,0,1.2-0.2,1.5-0.6
					c0.3-0.4,0.5-0.9,0.5-1.6C70.1,24,69.9,23.5,69.6,23.1z"/>
				<path fill="#FFFFFF" d="M70.6,28.6H70v-2.3c-0.4,0.6-1.1,0.9-1.9,0.9c-0.7,0-1.3-0.3-1.7-0.8c-0.4-0.5-0.6-1.1-0.6-1.8
					c0-0.7,0.2-1.3,0.6-1.8c0.4-0.5,1-0.7,1.8-0.7c0.9,0,1.5,0.3,1.9,0.9v-0.8h0.5V28.6z M70.2,28.5h0.2v-6.1h-0.2v1.3L70,23.3
					c-0.4-0.7-1-1.1-1.9-1.1c-0.7,0-1.2,0.2-1.6,0.7c-0.4,0.4-0.6,1-0.6,1.7c0,0.7,0.2,1.2,0.6,1.7c0.4,0.5,0.9,0.7,1.6,0.7
					c1,0,1.6-0.3,2-1.1l0.2-0.3V28.5z M68.1,26.8c-0.6,0-1.1-0.2-1.5-0.7c-0.3-0.4-0.5-0.9-0.5-1.6c0-0.6,0.2-1.2,0.5-1.6
					c0.4-0.4,0.9-0.7,1.5-0.7c0.7,0,1.2,0.2,1.6,0.6c0.4,0.4,0.6,1,0.6,1.6c0,0.7-0.2,1.2-0.5,1.6C69.3,26.6,68.8,26.8,68.1,26.8z
					 M68.1,22.5c-0.6,0-1,0.2-1.4,0.6c-0.3,0.4-0.5,0.9-0.5,1.5c0,0.6,0.2,1.1,0.5,1.5c0.3,0.4,0.8,0.6,1.4,0.6
					c0.6,0,1.1-0.2,1.5-0.6c0.3-0.4,0.5-0.9,0.5-1.5c0-0.6-0.2-1.1-0.5-1.5C69.2,22.7,68.7,22.5,68.1,22.5z"/>
			</g>
			<g>
				<path fill="#FFFFFF" d="M76.5,26.9v-0.8c-0.3,0.6-0.9,1-1.8,1c-0.6,0-1-0.1-1.4-0.4c-0.3-0.3-0.5-0.7-0.5-1.3v-3.1h0.3v3.1
					c0,0.5,0.1,0.8,0.4,1.1c0.3,0.2,0.7,0.4,1.1,0.4c0.6,0,1.1-0.2,1.4-0.5c0.3-0.3,0.4-0.8,0.4-1.4v-2.5h0.3v4.7H76.5z"/>
				<path fill="#FFFFFF" d="M74.7,27.1c-0.6,0-1.1-0.2-1.4-0.5c-0.4-0.3-0.5-0.8-0.5-1.4v-3.2h0.5v3.1c0,0.4,0.1,0.8,0.4,1
					c0.3,0.2,0.6,0.3,1.1,0.3c0.6,0,1-0.2,1.3-0.5c0.3-0.3,0.4-0.8,0.4-1.3v-2.6h0.5V27h-0.5v-0.6C76,26.9,75.4,27.1,74.7,27.1z
					 M72.8,22.3v3c0,0.5,0.2,0.9,0.5,1.2c0.3,0.3,0.8,0.4,1.3,0.4c0.8,0,1.4-0.3,1.7-0.9l0.2-0.3v1.1h0.2v-4.5h-0.2v2.5
					c0,0.6-0.2,1.1-0.5,1.4c-0.3,0.4-0.8,0.6-1.4,0.6c-0.5,0-0.9-0.1-1.2-0.4c-0.3-0.3-0.4-0.6-0.4-1.1v-3H72.8z"/>
			</g>
			<g>
				<path fill="#FFFFFF" d="M79,26.9v-4.7h0.3v4.7H79z M79.5,20.9c0,0.2-0.1,0.3-0.3,0.3c-0.2,0-0.3-0.1-0.3-0.3
					c0-0.2,0.1-0.3,0.3-0.3C79.4,20.5,79.5,20.7,79.5,20.9z"/>
				<path fill="#FFFFFF" d="M79.4,27h-0.5v-4.9h0.5V27z M79.1,26.9h0.2v-4.6h-0.2V26.9z M79.2,21.3c-0.2,0-0.4-0.2-0.4-0.4
					c0-0.2,0.2-0.4,0.4-0.4c0.2,0,0.4,0.2,0.4,0.4C79.6,21.1,79.4,21.3,79.2,21.3z M79.2,20.6c-0.1,0-0.2,0.1-0.2,0.2
					c0,0.1,0.1,0.2,0.2,0.2c0.1,0,0.2-0.1,0.2-0.2C79.4,20.7,79.3,20.6,79.2,20.6z"/>
			</g>
			<g>
				<path fill="#FFFFFF" d="M82.5,22.8v4.1h-0.3l0-4.1h-1v-0.3h1V21h0.3v1.4h1v0.3H82.5z"/>
				<path fill="#FFFFFF" d="M82.6,27h-0.5l0-4.1h-1v-0.5h1V21h0.5v1.4h1v0.5h-1V27z M82.3,26.9h0.2v-4.1h1v-0.2h-1v-1.4h-0.2v1.4h-1
					v0.2h1L82.3,26.9z"/>
			</g>
			<g>
				<path fill="#FFFFFF" d="M85.3,24.7c0,1.4,0.7,2,2,2c0.4,0,0.8-0.1,1.2-0.3c0.3-0.2,0.6-0.5,0.7-0.9h0.4
					c-0.2,0.5-0.5,0.9-0.9,1.2c-0.4,0.2-0.8,0.3-1.4,0.3c-0.8,0-1.4-0.2-1.8-0.7c-0.4-0.4-0.6-1-0.6-1.8c0-0.7,0.2-1.3,0.6-1.8
					c0.4-0.5,1-0.7,1.7-0.7c0.7,0,1.3,0.2,1.7,0.6c0.4,0.4,0.6,1,0.6,1.7v0.3L85.3,24.7z M87.4,22.5c-0.6,0-1.1,0.2-1.4,0.5
					c-0.4,0.3-0.6,0.8-0.6,1.4h4c0-0.6-0.2-1.1-0.5-1.4C88.4,22.6,88,22.5,87.4,22.5z"/>
				<path fill="#FFFFFF" d="M87.3,27.1c-0.8,0-1.4-0.2-1.8-0.7c-0.4-0.4-0.6-1.1-0.6-1.8c0-0.8,0.2-1.4,0.7-1.8
					c0.4-0.5,1-0.7,1.8-0.7c0.7,0,1.3,0.2,1.8,0.6c0.4,0.4,0.7,1,0.7,1.7v0.4l-4.4,0c0.1,1.2,0.7,1.9,1.9,1.9c0.4,0,0.8-0.1,1.1-0.3
					c0.3-0.2,0.5-0.5,0.7-0.8l0-0.1h0.5l0,0.1c-0.2,0.6-0.5,1-0.9,1.2C88.3,27,87.9,27.1,87.3,27.1z M87.4,22.2
					c-0.7,0-1.2,0.2-1.7,0.7c-0.4,0.4-0.6,1-0.6,1.7c0,0.7,0.2,1.3,0.5,1.7c0.4,0.4,1,0.6,1.7,0.6c0.5,0,1-0.1,1.3-0.3
					c0.4-0.2,0.6-0.5,0.8-1h-0.2c-0.2,0.4-0.4,0.7-0.7,0.9c-0.3,0.2-0.8,0.3-1.2,0.3c-1.3,0-2-0.7-2.1-2.1l0-0.1l4.4,0v-0.2
					c0-0.7-0.2-1.2-0.6-1.6C88.6,22.4,88.1,22.2,87.4,22.2z M89.4,24.5h-4.2l0-0.1c0-0.6,0.3-1.1,0.6-1.5c0.4-0.4,0.9-0.5,1.5-0.5
					c0.6,0,1.1,0.2,1.5,0.5C89.2,23.3,89.4,23.8,89.4,24.5L89.4,24.5z M85.4,24.3h3.8c0-0.5-0.2-0.9-0.5-1.3
					c-0.3-0.3-0.8-0.5-1.4-0.5c-0.6,0-1,0.2-1.4,0.5C85.7,23.4,85.5,23.8,85.4,24.3z"/>
			</g>
			<g>
				<path fill="#FFFFFF" d="M95.1,26.7c-0.4,0.2-0.8,0.4-1.3,0.4c-0.7,0-1.3-0.2-1.7-0.6c-0.4-0.4-0.6-1-0.6-1.7
					c0-0.8,0.2-1.4,0.7-1.9c0.4-0.5,1-0.7,1.8-0.7c0.5,0,0.9,0.1,1.2,0.3c0.4,0.2,0.6,0.6,0.8,1.1l-0.3,0.2
					c-0.2-0.8-0.8-1.2-1.7-1.2c-0.7,0-1.2,0.2-1.6,0.6c-0.4,0.4-0.5,0.9-0.5,1.6c0,0.6,0.2,1.1,0.5,1.5c0.4,0.4,0.9,0.6,1.5,0.6
					c0.4,0,0.8-0.1,1.2-0.3c0.4-0.2,0.6-0.6,0.7-1l0.3,0.1C95.8,26,95.5,26.4,95.1,26.7z"/>
				<path fill="#FFFFFF" d="M93.7,27.1c-0.8,0-1.4-0.2-1.8-0.7c-0.4-0.4-0.7-1-0.7-1.8c0-0.8,0.2-1.4,0.7-1.9
					c0.5-0.5,1.1-0.7,1.9-0.7c0.5,0,0.9,0.1,1.3,0.3c0.4,0.3,0.7,0.6,0.8,1.1l0,0.1l-0.5,0.2l0-0.1c-0.2-0.8-0.7-1.2-1.6-1.2
					c-0.6,0-1.2,0.2-1.5,0.6c-0.3,0.4-0.5,0.9-0.5,1.5c0,0.6,0.2,1.1,0.5,1.4c0.3,0.4,0.8,0.5,1.4,0.5c0.4,0,0.8-0.1,1.1-0.3
					c0.3-0.2,0.5-0.5,0.6-1l0-0.1l0.5,0.2l0,0.1c-0.1,0.5-0.4,1-0.8,1.2C94.7,27,94.3,27.1,93.7,27.1z M93.8,22.2
					c-0.7,0-1.3,0.2-1.8,0.7c-0.4,0.4-0.6,1-0.6,1.8c0,0.7,0.2,1.2,0.6,1.7c0.4,0.4,1,0.6,1.7,0.6c0.5,0,0.9-0.1,1.3-0.3
					c0.4-0.2,0.6-0.6,0.8-1l-0.2-0.1c-0.1,0.4-0.3,0.8-0.7,1c-0.3,0.2-0.7,0.3-1.2,0.3c-0.7,0-1.2-0.2-1.6-0.6
					c-0.4-0.4-0.6-0.9-0.6-1.5c0-0.7,0.2-1.2,0.6-1.7c0.4-0.4,1-0.7,1.6-0.7c0.9,0,1.5,0.4,1.7,1.2l0.2-0.1
					c-0.1-0.4-0.4-0.7-0.7-0.9C94.7,22.3,94.3,22.2,93.8,22.2z"/>
			</g>
			<g>
				<path fill="#FFFFFF" d="M98.8,22.8v4.1h-0.3l0-4.1h-1v-0.3h1V21h0.3v1.4h1v0.3H98.8z"/>
				<path fill="#FFFFFF" d="M98.9,27h-0.5l0-4.1h-1v-0.5h1V21h0.5v1.4h1v0.5h-1V27z M98.6,26.9h0.2v-4.1h1v-0.2h-1v-1.4h-0.2v1.4h-1
					v0.2h1L98.6,26.9z"/>
			</g>
			<g>
				<path fill="#FFFFFF" d="M105.3,26.9v-0.8c-0.3,0.6-0.9,1-1.8,1c-0.6,0-1-0.1-1.4-0.4c-0.3-0.3-0.5-0.7-0.5-1.3v-3.1h0.3v3.1
					c0,0.5,0.1,0.8,0.4,1.1c0.3,0.2,0.7,0.4,1.1,0.4c0.6,0,1-0.2,1.4-0.5c0.3-0.3,0.4-0.8,0.4-1.4v-2.5h0.3v4.7H105.3z"/>
				<path fill="#FFFFFF" d="M103.5,27.1c-0.6,0-1.1-0.2-1.4-0.5c-0.4-0.3-0.5-0.8-0.5-1.4v-3.2h0.5v3.1c0,0.4,0.1,0.8,0.4,1
					c0.3,0.2,0.6,0.3,1.1,0.3c0.6,0,1-0.2,1.3-0.5c0.3-0.3,0.4-0.8,0.4-1.3v-2.6h0.5V27h-0.5v-0.6C104.9,26.9,104.3,27.1,103.5,27.1
					z M101.7,22.3v3c0,0.5,0.2,0.9,0.5,1.2c0.3,0.3,0.8,0.4,1.3,0.4c0.8,0,1.4-0.3,1.7-0.9l0.2-0.3v1.1h0.2v-4.5h-0.2v2.5
					c0,0.6-0.2,1.1-0.5,1.4c-0.3,0.4-0.8,0.6-1.4,0.6c-0.5,0-0.9-0.1-1.2-0.4c-0.3-0.3-0.4-0.6-0.4-1.1v-3H101.7z"/>
			</g>
			<g>
				<path fill="#FFFFFF" d="M108.2,23.3c0.1-0.2,0.3-0.4,0.5-0.6c0.4-0.3,0.9-0.5,1.6-0.5v0.3c-0.7,0-1.3,0.3-1.6,0.8
					c-0.3,0.5-0.4,1.1-0.4,1.8v1.9h-0.3v-4.7h0.3V23.3z"/>
				<path fill="#FFFFFF" d="M108.3,27h-0.5v-4.9h0.5v0.8c0.1-0.1,0.2-0.3,0.3-0.4c0.4-0.4,1-0.5,1.6-0.5h0.1v0.5h-0.1
					c-0.7,0-1.2,0.3-1.5,0.8c-0.3,0.4-0.4,1-0.4,1.7V27z M108,26.9h0.2v-1.8c0-0.7,0.1-1.3,0.4-1.8c0.3-0.6,0.9-0.9,1.6-0.9v-0.1
					c-0.6,0-1.1,0.2-1.4,0.5c-0.2,0.2-0.4,0.4-0.5,0.6l-0.2,0.4v-1.3H108V26.9z"/>
			</g>
			<g>
				<path fill="#FFFFFF" d="M116.2,26.9v-1.1c-0.4,0.8-1.1,1.2-2,1.2c-0.7,0-1.3-0.2-1.7-0.7c-0.4-0.4-0.6-1-0.6-1.7
					c0-0.7,0.2-1.3,0.6-1.8c0.4-0.5,1-0.7,1.7-0.7c0.9,0,1.6,0.4,2,1.1v-1.1h0.3v4.8H116.2z M114.2,22.5c-0.6,0-1.1,0.2-1.4,0.6
					c-0.3,0.4-0.5,0.9-0.5,1.5c0,0.6,0.2,1.1,0.5,1.5c0.4,0.4,0.8,0.6,1.5,0.6c0.6,0,1.1-0.2,1.5-0.6c0.4-0.4,0.5-0.9,0.5-1.5
					c0-0.7-0.2-1.2-0.5-1.6C115.3,22.6,114.8,22.5,114.2,22.5z"/>
				<path fill="#FFFFFF" d="M114.2,27.1c-0.7,0-1.3-0.2-1.8-0.7c-0.4-0.5-0.6-1.1-0.6-1.8c0-0.7,0.2-1.4,0.6-1.8
					c0.4-0.5,1-0.7,1.8-0.7c0.9,0,1.5,0.3,1.9,0.9v-0.9h0.5v5h-0.5v-0.8C115.7,26.8,115,27.1,114.2,27.1z M114.2,22.2
					c-0.7,0-1.3,0.2-1.7,0.7c-0.4,0.4-0.6,1-0.6,1.7c0,0.7,0.2,1.2,0.6,1.7c0.4,0.5,0.9,0.7,1.6,0.7c0.9,0,1.6-0.4,2-1.1l0.2-0.3
					v1.3h0.2v-4.6h-0.2v1.4l-0.2-0.3C115.7,22.6,115.1,22.2,114.2,22.2z M114.2,26.8c-0.6,0-1.2-0.2-1.5-0.7
					c-0.3-0.4-0.5-0.9-0.5-1.6c0-0.6,0.2-1.2,0.5-1.6c0.4-0.4,0.9-0.7,1.5-0.7c0.7,0,1.2,0.2,1.6,0.6c0.4,0.4,0.6,1,0.6,1.6
					c0,0.6-0.2,1.1-0.6,1.6C115.3,26.6,114.8,26.8,114.2,26.8z M114.2,22.5c-0.6,0-1,0.2-1.4,0.6c-0.3,0.4-0.5,0.9-0.5,1.5
					c0,0.6,0.2,1.1,0.5,1.4c0.3,0.4,0.8,0.6,1.4,0.6c0.6,0,1.1-0.2,1.4-0.6c0.3-0.4,0.5-0.9,0.5-1.4c0-0.6-0.2-1.1-0.5-1.5
					C115.3,22.7,114.8,22.5,114.2,22.5z"/>
			</g>
		</g>
	</g>
	<g>
		<g>
			<g>
				<path fill="#FFFFFF" d="M3.5,7.3v0.5h2.4v1.3H3.5v8.4H2.1V9.2H0.5V7.8h1.6V7.3c0-2.8,1.9-4.1,5.8-4.1v1.3
					c-1.6,0-2.7,0.2-3.4,0.7C3.8,5.7,3.5,6.4,3.5,7.3z"/>
				<path fill="#FFFFFF" d="M15.9,17.6V16c-1,1.2-2.4,1.7-4.2,1.7c-1.7,0-3.1-0.5-4.1-1.6c-0.9-1-1.4-2.3-1.4-3.9
					c0-1.6,0.5-2.9,1.4-3.9c1-1.1,2.4-1.6,4.1-1.6c1.8,0,3.1,0.6,4.1,1.7V6.8h1.4v10.7H15.9z M14.9,9.2c-0.7-0.8-1.8-1.1-3.2-1.1
					c-1.3,0-2.3,0.4-3,1.2c-0.7,0.8-1,1.8-1,3c0,1.2,0.3,2.2,1,3c0.7,0.8,1.7,1.2,3,1.2c1.3,0,2.3-0.4,3.1-1.2
					c0.8-0.8,1.2-1.8,1.2-3C15.9,11,15.6,10,14.9,9.2z"/>
				<path fill="#FFFFFF" d="M27.4,17c-0.9,0.5-2,0.8-3.2,0.8c-1.7,0-3.1-0.5-4.1-1.5c-1-1-1.5-2.3-1.5-3.9c0-1.7,0.5-3.1,1.6-4.1
					c1-1,2.5-1.6,4.3-1.6c1.6,0,2.8,0.5,3.7,1.4c0.5,0.5,0.8,1.2,1.1,2l-1.3,0.6c-0.3-1-0.7-1.7-1.2-2.1c-0.6-0.4-1.3-0.6-2.3-0.6
					c-1.4,0-2.5,0.4-3.3,1.2c-0.8,0.8-1.2,1.9-1.2,3.2c0,1.2,0.4,2.2,1.1,2.9c0.7,0.7,1.8,1.1,3.1,1.1c0.9,0,1.8-0.2,2.5-0.6
					c0.7-0.4,1.2-1.2,1.4-2.4l1.4,0.6C29,15.4,28.4,16.4,27.4,17z"/>
				<path fill="#FFFFFF" d="M30.3,17.5V6.8h1.4v10.8H30.3z"/>
				<g>
					<path fill="#FFFFFF" d="M41.2,17.5V2.9H42v14.6H41.2z"/>
					<path fill="#FFFFFF" d="M42.1,17.6h-0.9V2.8h0.9V17.6z M41.3,17.4h0.6V3h-0.6V17.4z"/>
				</g>
				<g>
					<path fill="#FFFFFF" d="M44.2,12.5c0.1,3,1.6,4.5,4.5,4.5c1,0,1.8-0.2,2.6-0.7c0.8-0.4,1.3-1.1,1.6-2h0.8c-0.4,1.2-1,2.1-2,2.6
						c-0.9,0.5-1.9,0.7-3.1,0.7c-1.7,0-3-0.5-3.9-1.5c-0.8-0.9-1.2-2.3-1.2-4c0-1.6,0.5-3,1.4-4c1-1,2.2-1.5,3.9-1.5
						c1.6,0,2.9,0.5,3.9,1.4c1,0.9,1.4,2.2,1.4,3.7v0.6L44.2,12.5z M48.8,7.5c-1.3,0-2.4,0.4-3.2,1.2c-0.8,0.8-1.3,1.8-1.4,3.2h8.9
						c0-1.3-0.4-2.4-1.2-3.2C51.1,7.9,50.1,7.5,48.8,7.5z"/>
					<path fill="#FFFFFF" d="M48.7,17.9c-1.7,0-3.1-0.5-4-1.5c-0.8-1-1.3-2.3-1.3-4c0-1.7,0.5-3,1.5-4.1c1-1,2.3-1.6,3.9-1.6
						c1.6,0,2.9,0.5,3.9,1.4c1,0.9,1.5,2.2,1.5,3.8v0.7l-0.1,0l-9.8,0c0.1,2.9,1.5,4.4,4.4,4.4c1,0,1.8-0.2,2.6-0.7
						c0.7-0.4,1.3-1.1,1.6-1.9l0-0.1h1l0,0.1c-0.4,1.2-1.1,2.1-2,2.7C50.9,17.6,49.9,17.9,48.7,17.9z M48.8,6.8
						c-1.6,0-2.9,0.5-3.8,1.5c-0.9,1-1.4,2.3-1.4,3.9c0,1.7,0.4,3,1.2,3.9c0.9,1,2.2,1.5,3.9,1.5c1.2,0,2.2-0.2,3-0.7
						c0.9-0.5,1.5-1.3,1.9-2.4H53c-0.3,0.9-0.9,1.5-1.6,1.9c-0.8,0.5-1.7,0.7-2.6,0.7c-2.9,0-4.5-1.6-4.6-4.6l0-0.1l0.1,0l9.8,0
						v-0.5c0-1.5-0.5-2.8-1.4-3.7C51.6,7.3,50.3,6.8,48.8,6.8z M53.2,11.9h-9.1l0-0.1c0.1-1.3,0.6-2.4,1.4-3.2
						c0.8-0.8,1.9-1.2,3.2-1.2c1.3,0,2.4,0.4,3.2,1.2C52.8,9.4,53.2,10.5,53.2,11.9L53.2,11.9z M44.3,11.7h8.8c0-1.2-0.4-2.3-1.2-3
						c-0.8-0.8-1.8-1.1-3.1-1.1c-1.3,0-2.3,0.4-3.1,1.1C44.9,9.5,44.4,10.5,44.3,11.7z"/>
				</g>
				<g>
					<path fill="#FFFFFF" d="M60.7,17.7c-0.9,0-1.8-0.2-2.6-0.7c-0.8-0.5-1.4-1.1-1.8-1.9v2.3h-0.8V2.9h0.8v6.3
						c0.8-1.7,2.3-2.5,4.4-2.5c1.7,0,3,0.5,3.9,1.6c0.9,1,1.3,2.3,1.3,4s-0.5,3-1.4,4C63.6,17.2,62.3,17.7,60.7,17.7z M60.8,7.4
						c-1.5,0-2.7,0.5-3.4,1.4c-0.7,0.8-1.1,2-1.1,3.5c0,1.4,0.4,2.5,1.2,3.4c0.8,0.9,1.9,1.3,3.3,1.3c1.4,0,2.5-0.5,3.3-1.4
						c0.7-0.9,1.1-2,1.1-3.4c0-1.4-0.4-2.6-1.1-3.4C63.3,7.9,62.2,7.4,60.8,7.4z"/>
					<path fill="#FFFFFF" d="M60.7,17.8c-1,0-1.8-0.2-2.6-0.7c-0.7-0.4-1.3-0.9-1.7-1.6v2.1h-0.9V2.8h0.9v6c0.9-1.5,2.3-2.3,4.3-2.3
						c1.7,0,3,0.6,4,1.6c0.9,1,1.3,2.4,1.3,4c0,1.7-0.5,3-1.4,4C63.6,17.3,62.3,17.8,60.7,17.8z M56.1,14.8l0.2,0.3
						c0.4,0.8,1,1.4,1.8,1.8c0.8,0.4,1.6,0.7,2.6,0.7c1.6,0,2.9-0.5,3.8-1.5c0.9-1,1.3-2.3,1.3-3.9c0-1.6-0.4-3-1.3-3.9
						c-0.9-1.1-2.2-1.6-3.8-1.6c-2.1,0-3.5,0.8-4.4,2.5l-0.2,0.3V3h-0.6v14.4h0.6V14.8z M60.8,17.1c-1.4,0-2.5-0.5-3.4-1.4
						c-0.8-0.9-1.3-2.1-1.3-3.5c0-1.5,0.4-2.7,1.1-3.6c0.8-0.9,2-1.4,3.5-1.4c1.4,0,2.6,0.5,3.3,1.5c0.7,0.9,1.1,2,1.1,3.5
						c0,1.4-0.4,2.6-1.1,3.4C63.3,16.6,62.2,17.1,60.8,17.1z M60.8,7.5c-1.5,0-2.6,0.5-3.4,1.4c-0.7,0.8-1.1,2-1.1,3.5
						c0,1.3,0.4,2.5,1.2,3.3c0.8,0.9,1.9,1.3,3.2,1.3c1.4,0,2.4-0.5,3.2-1.4c0.7-0.8,1.1-2,1.1-3.3c0-1.4-0.4-2.5-1.1-3.4
						C63.2,7.9,62.1,7.5,60.8,7.5z"/>
				</g>
				<g>
					<path fill="#FFFFFF" d="M72.4,17.8c-1.7,0-3-0.5-4-1.6c-0.9-1-1.4-2.3-1.4-3.9c0-1.7,0.5-3,1.5-4c1-1,2.3-1.5,4-1.5
						c1.7,0,3,0.5,3.9,1.5c1,1,1.5,2.3,1.5,4c0,1.7-0.5,3-1.5,4C75.3,17.3,74,17.8,72.4,17.8z M72.4,7.5c-1.4,0-2.6,0.4-3.4,1.3
						c-0.8,0.9-1.2,2-1.2,3.5c0,1.4,0.4,2.6,1.2,3.5c0.8,0.9,2,1.3,3.4,1.3c1.4,0,2.6-0.4,3.4-1.3c0.8-0.9,1.3-2,1.3-3.5
						c0-1.5-0.4-2.6-1.2-3.5C75,7.9,73.8,7.5,72.4,7.5z"/>
					<path fill="#FFFFFF" d="M72.4,17.9c-1.7,0-3-0.5-4-1.6c-1-1-1.4-2.3-1.4-4c0-1.7,0.5-3,1.5-4.1c1-1,2.3-1.5,4-1.5
						c1.7,0,3,0.5,4,1.5c1,1,1.5,2.4,1.5,4.1c0,1.7-0.5,3-1.5,4C75.4,17.3,74,17.9,72.4,17.9z M72.4,6.8c-1.6,0-2.9,0.5-3.9,1.5
						c-1,1-1.5,2.3-1.5,3.9c0,1.6,0.5,2.9,1.4,3.9c1,1,2.3,1.5,3.9,1.5c1.6,0,2.9-0.5,3.9-1.5c1-1,1.5-2.3,1.5-3.9
						c0-1.6-0.5-3-1.4-3.9C75.3,7.3,74,6.8,72.4,6.8z M72.4,17.1c-1.4,0-2.6-0.5-3.4-1.3c-0.8-0.9-1.3-2.1-1.3-3.5
						c0-1.5,0.4-2.7,1.3-3.5c0.8-0.9,2-1.3,3.5-1.3c1.5,0,2.6,0.4,3.5,1.3c0.8,0.9,1.3,2.1,1.3,3.6c0,1.5-0.4,2.6-1.3,3.5
						C75,16.7,73.8,17.1,72.4,17.1z M72.4,7.6c-1.4,0-2.5,0.4-3.3,1.3c-0.8,0.9-1.2,2-1.2,3.4c0,1.4,0.4,2.6,1.2,3.4
						c0.8,0.9,1.9,1.3,3.3,1.3c1.4,0,2.5-0.4,3.3-1.3c0.8-0.9,1.2-2,1.2-3.4c0-1.4-0.4-2.6-1.2-3.4C74.9,8,73.8,7.6,72.4,7.6z"/>
				</g>
				<g>
					<path fill="#FFFFFF" d="M80.1,9.3c0.2-0.5,0.6-1,1.1-1.4c0.9-0.8,2.1-1.1,3.5-1.1v0.7c-1.6,0-2.9,0.6-3.6,1.9
						c-0.6,1-0.9,2.4-0.9,4v4.2h-0.8V7h0.8V9.3z"/>
					<path fill="#FFFFFF" d="M80.2,17.6h-0.9V6.9h0.9v2c0.2-0.4,0.5-0.8,0.9-1.1c0.9-0.8,2.1-1.2,3.6-1.2h0.1v0.9h-0.1
						c-1.6,0-2.8,0.6-3.6,1.8c-0.6,1-0.9,2.3-0.9,3.9V17.6z M79.4,17.4H80v-4.1c0-1.6,0.3-3,1-4c0.8-1.2,2-1.9,3.6-1.9V6.8
						c-1.4,0-2.5,0.4-3.4,1.1c-0.5,0.4-0.8,0.9-1.1,1.4L80,9.7V7.1h-0.6V17.4z"/>
				</g>
				<g>
					<path fill="#FFFFFF" d="M86.3,12.5c0.1,3,1.6,4.5,4.5,4.5c1,0,1.8-0.2,2.6-0.7c0.8-0.4,1.3-1.1,1.6-2h0.8c-0.4,1.2-1,2.1-2,2.6
						c-0.9,0.5-1.9,0.7-3.1,0.7c-1.7,0-3-0.5-3.9-1.5c-0.8-0.9-1.2-2.3-1.2-4c0-1.6,0.5-3,1.4-4c1-1,2.2-1.5,3.9-1.5
						c1.6,0,2.9,0.5,3.9,1.4c1,0.9,1.4,2.2,1.4,3.7v0.6L86.3,12.5z M90.8,7.5c-1.3,0-2.4,0.4-3.2,1.2c-0.8,0.8-1.3,1.8-1.4,3.2h8.9
						c0-1.3-0.4-2.4-1.2-3.2C93.2,7.9,92.1,7.5,90.8,7.5z"/>
					<path fill="#FFFFFF" d="M90.7,17.9c-1.7,0-3.1-0.5-4-1.5c-0.8-1-1.3-2.3-1.3-4c0-1.7,0.5-3,1.5-4.1c1-1,2.3-1.6,3.9-1.6
						c1.6,0,2.9,0.5,3.9,1.4c1,0.9,1.5,2.2,1.5,3.8v0.7l-0.1,0l-9.8,0c0.1,2.9,1.5,4.4,4.4,4.4c1,0,1.8-0.2,2.6-0.7
						c0.7-0.4,1.3-1.1,1.6-1.9l0-0.1h1l0,0.1c-0.4,1.2-1.1,2.1-2,2.7C92.9,17.6,91.9,17.9,90.7,17.9z M90.8,6.8
						c-1.6,0-2.9,0.5-3.8,1.5c-0.9,1-1.4,2.3-1.4,3.9c0,1.7,0.4,3,1.2,3.9c0.9,1,2.2,1.5,3.9,1.5c1.2,0,2.2-0.2,3-0.7
						c0.9-0.5,1.5-1.3,1.9-2.4H95c-0.3,0.9-0.9,1.5-1.6,1.9c-0.8,0.5-1.7,0.7-2.6,0.7c-2.9,0-4.5-1.6-4.6-4.6l0-0.1l0.1,0l9.8,0
						v-0.5c0-1.5-0.5-2.8-1.4-3.7C93.7,7.3,92.4,6.8,90.8,6.8z M95.3,11.9h-9.1l0-0.1c0.1-1.3,0.6-2.4,1.4-3.2
						c0.8-0.8,1.9-1.2,3.2-1.2c1.3,0,2.4,0.4,3.2,1.2C94.8,9.4,95.3,10.5,95.3,11.9L95.3,11.9z M86.4,11.7h8.8c0-1.3-0.4-2.3-1.2-3
						c-0.8-0.8-1.8-1.1-3.1-1.1c-1.3,0-2.3,0.4-3.1,1.1C86.9,9.5,86.5,10.5,86.4,11.7z"/>
				</g>
				<g>
					<path fill="#FFFFFF" d="M97.5,17.5V6.9h0.8v10.6H97.5z"/>
					<path fill="#FFFFFF" d="M98.4,17.6h-0.9V6.8h0.9V17.6z M97.6,17.4h0.6V7h-0.6V17.4z"/>
				</g>
				<g>
					<path fill="#FFFFFF" d="M101.2,9.3c0.2-0.5,0.6-1,1.1-1.4c0.9-0.8,2.1-1.1,3.5-1.1v0.7c-1.7,0-2.9,0.6-3.6,1.9
						c-0.6,1-0.9,2.4-0.9,4v4.2h-0.8V7h0.8V9.3z"/>
					<path fill="#FFFFFF" d="M101.3,17.6h-0.9V6.9h0.9v2c0.2-0.4,0.5-0.8,0.9-1.1c0.9-0.8,2.1-1.2,3.6-1.2h0.1v0.9h-0.1
						c-1.6,0-2.8,0.6-3.6,1.8c-0.6,1-0.9,2.3-0.9,3.9V17.6z M100.5,17.4h0.6v-4.1c0-1.6,0.3-3,1-4c0.8-1.2,2-1.9,3.6-1.9V6.8
						c-1.4,0-2.5,0.4-3.4,1.1c-0.5,0.4-0.8,0.9-1.1,1.4l-0.2,0.4V7.1h-0.6V17.4z"/>
				</g>
				<g>
					<path fill="#FFFFFF" d="M112,17.8c-1.7,0-3-0.5-4-1.6c-0.9-1-1.4-2.3-1.4-3.9c0-1.7,0.5-3,1.5-4c1-1,2.3-1.5,4-1.5
						c1.7,0,3,0.5,3.9,1.5c1,1,1.5,2.3,1.5,4c0,1.7-0.5,3-1.5,4C115,17.3,113.7,17.8,112,17.8z M112.1,7.5c-1.4,0-2.6,0.4-3.4,1.3
						c-0.8,0.9-1.2,2-1.2,3.5c0,1.4,0.4,2.6,1.2,3.5c0.8,0.9,2,1.3,3.4,1.3c1.4,0,2.6-0.4,3.4-1.3c0.8-0.9,1.3-2,1.3-3.5
						c0-1.5-0.4-2.6-1.2-3.5C114.6,7.9,113.5,7.5,112.1,7.5z"/>
					<path fill="#FFFFFF" d="M112,17.9c-1.7,0-3-0.5-4-1.6c-1-1-1.4-2.3-1.4-4c0-1.7,0.5-3,1.5-4.1c1-1,2.3-1.5,4-1.5
						c1.7,0,3,0.5,4,1.5c1,1,1.5,2.4,1.5,4.1c0,1.7-0.5,3-1.5,4C115.1,17.3,113.7,17.9,112,17.9z M112.1,6.8c-1.6,0-2.9,0.5-3.9,1.5
						c-1,1-1.5,2.3-1.5,3.9c0,1.6,0.5,2.9,1.4,3.9c1,1,2.3,1.5,3.9,1.5c1.6,0,2.9-0.5,3.9-1.5c1-1,1.5-2.3,1.5-3.9
						c0-1.6-0.5-3-1.4-3.9C115,7.3,113.7,6.8,112.1,6.8z M112.1,17.1c-1.4,0-2.6-0.5-3.4-1.3c-0.8-0.9-1.3-2.1-1.3-3.5
						c0-1.5,0.4-2.7,1.3-3.5c0.8-0.9,2-1.3,3.5-1.3c1.5,0,2.6,0.4,3.5,1.3c0.8,0.9,1.3,2.1,1.3,3.6c0,1.5-0.4,2.6-1.3,3.5
						C114.7,16.7,113.5,17.1,112.1,17.1z M112.1,7.6c-1.4,0-2.5,0.4-3.3,1.3c-0.8,0.9-1.2,2-1.2,3.4c0,1.4,0.4,2.6,1.2,3.4
						c0.8,0.9,1.9,1.3,3.3,1.3c1.4,0,2.5-0.4,3.3-1.3c0.8-0.9,1.2-2,1.2-3.4c0-1.4-0.4-2.6-1.2-3.4C114.6,8,113.5,7.6,112.1,7.6z"/>
				</g>
			</g>
			<circle fill="#FFFFFF" cx="97.9" cy="4.1" r="0.7"/>
		</g>
	</g>
</g>
<path fill="#FFFFFF" d="M31.1,5.1c-0.6,0-1-0.5-1-1.1c0-0.6,0.5-1,1-1c0.6,0,1,0.5,1,1C32.1,4.6,31.6,5.1,31.1,5.1z"/>
</svg>
