<?xml version="1.0" encoding="utf-8"?>
<!-- Generator: Adobe Illustrator 18.1.0, SVG Export Plug-In . SVG Version: 6.00 Build 0)  -->
<svg version="1.1" id="Layer_1_copy" xmlns="http://www.w3.org/2000/svg" xmlns:xlink="http://www.w3.org/1999/xlink" x="0px"
	 y="0px" viewBox="0 0 235 176" enable-background="new 0 0 235 176" xml:space="preserve">
<path fill="#FFFFFF" d="M142.2,47.1H97.9c1.8-5.8,2.8-11.7,2.8-14.7c0-7-5.7-12.7-12.7-12.7c-7,0-12.7,5.7-12.7,12.7
	c0,3,1.1,8.9,2.8,14.7H4.8v94.1h180.6L142.2,47.1z M88,24.7c4.1,0,7.5,3.4,7.5,7.5c0,4.1-3.4,7.5-7.5,7.5c-4.1,0-7.5-3.4-7.5-7.5
	C80.4,28,83.8,24.7,88,24.7z M181.9,138.2l-70.3-42.6c12-18,25.8-38.8,30-45L181.9,138.2z M44.1,49.1h34.6C81,56,84.3,62.1,88,62.1
	c3.6,0,6.9-6.1,9.3-12.9h42.9c-3.9,5.8-18,27.1-30.2,45.4L44.1,54.6V49.1z M42.1,139.2H6.8V49.1h35.2V139.2z M44.1,139.2V57
	l64.7,39.2C99.1,110.7,91,123,90.7,123.4c-0.7,1-1.9,10-2.7,15.8H44.1z M90,139.2c0.9-6.8,2-13.9,2.4-14.7
	c0.3-0.4,8.4-12.7,18.1-27.2l69.2,42H90z"/>
<g>
	<path fill="#FFFFFF" d="M10.7,43.5H9.8v-3.9H5.7v3.9H4.8v-8.5h0.9v3.8h4.1v-3.8h0.9V43.5z"/>
	<path fill="#FFFFFF" d="M17.5,40.5c0,1.1-0.2,1.9-0.7,2.4c-0.4,0.4-1,0.7-1.7,0.7c-0.7,0-1.3-0.2-1.7-0.7c-0.5-0.5-0.7-1.3-0.7-2.4
		c0-1.1,0.2-1.9,0.7-2.4c0.4-0.4,1-0.7,1.7-0.7c0.7,0,1.3,0.2,1.7,0.7C17.3,38.7,17.5,39.5,17.5,40.5z M16.6,40.5
		c0-0.9-0.2-1.5-0.5-1.8c-0.3-0.3-0.6-0.4-1.1-0.4c-0.4,0-0.8,0.1-1.1,0.4c-0.3,0.3-0.5,0.9-0.5,1.8c0,0.9,0.2,1.5,0.5,1.8
		c0.3,0.3,0.6,0.4,1.1,0.4c0.4,0,0.8-0.2,1.1-0.5C16.5,42,16.6,41.4,16.6,40.5z"/>
	<path fill="#FFFFFF" d="M23.3,38.1l-0.6,0.6c-0.3-0.3-0.6-0.4-1-0.4c-0.4,0-0.8,0.1-1,0.5c-0.3,0.3-0.4,0.7-0.4,1.1v3.6h-0.9v-5.9
		h0.9v0.7c0.3-0.5,0.9-0.8,1.7-0.8C22.5,37.5,22.9,37.7,23.3,38.1z"/>
	<path fill="#FFFFFF" d="M28.6,43.5h-0.9v-0.6c-0.4,0.4-1,0.6-1.7,0.6c-0.8,0-1.3-0.2-1.7-0.5c-0.3-0.3-0.4-0.7-0.4-1.2
		c0-0.5,0.2-0.9,0.5-1.2c0.4-0.3,0.9-0.5,1.5-0.5h1.8v-0.6c0-0.9-0.5-1.3-1.5-1.3c-0.7,0-1.2,0.2-1.5,0.7l-0.6-0.5
		c0.3-0.3,0.6-0.6,0.9-0.7c0.3-0.1,0.7-0.2,1.2-0.2c1.6,0,2.4,0.7,2.4,2V43.5z M27.8,41.4v-0.6h-1.7c-0.9,0-1.3,0.3-1.3,1
		c0,0.7,0.5,1,1.4,1c0.6,0,1-0.1,1.3-0.4C27.7,42.2,27.8,41.9,27.8,41.4z"/>
	<path fill="#FFFFFF" d="M35,42.7c-0.3,0.3-0.6,0.6-0.9,0.7c-0.3,0.1-0.6,0.2-1.1,0.2c-0.8,0-1.4-0.3-1.9-0.8
		c-0.5-0.5-0.8-1.3-0.8-2.3c0-1,0.3-1.7,0.8-2.3c0.5-0.5,1.1-0.8,1.9-0.8c0.4,0,0.8,0.1,1.1,0.2c0.3,0.1,0.6,0.4,0.9,0.7l-0.6,0.6
		c-0.4-0.4-0.9-0.7-1.4-0.7c-0.6,0-1,0.2-1.4,0.7c-0.3,0.4-0.4,0.9-0.4,1.6c0,0.7,0.1,1.2,0.4,1.6c0.3,0.4,0.8,0.7,1.4,0.7
		c0.5,0,0.9-0.2,1.4-0.7L35,42.7z"/>
	<path fill="#FFFFFF" d="M37.5,35.9h-1v-1h1V35.9z M37.5,43.5h-0.9v-5.9h0.9V43.5z"/>
	<path fill="#FFFFFF" d="M44.1,40.5c0,1.1-0.2,1.9-0.7,2.4c-0.4,0.4-1,0.7-1.7,0.7c-0.7,0-1.3-0.2-1.7-0.7c-0.5-0.5-0.7-1.3-0.7-2.4
		c0-1.1,0.2-1.9,0.7-2.4c0.4-0.4,1-0.7,1.7-0.7c0.7,0,1.3,0.2,1.7,0.7C43.9,38.7,44.1,39.5,44.1,40.5z M43.3,40.5
		c0-0.9-0.2-1.5-0.5-1.8c-0.3-0.3-0.6-0.4-1.1-0.4c-0.4,0-0.8,0.1-1.1,0.4c-0.3,0.3-0.5,0.9-0.5,1.8c0,0.9,0.2,1.5,0.5,1.8
		c0.3,0.3,0.6,0.4,1.1,0.4c0.4,0,0.8-0.2,1.1-0.5C43.1,42,43.3,41.4,43.3,40.5z"/>
</g>
<g>
	<path fill="#FFFFFF" d="M81.1,153.8h-0.9v-6.5l-2.3,5.1h-0.8l-2.4-5.1v6.5h-0.9v-8.5h0.9l2.8,6.1l2.7-6.1h0.9V153.8z"/>
	<path fill="#FFFFFF" d="M87.7,153.8h-0.9v-0.6c-0.4,0.4-1,0.6-1.7,0.6c-0.8,0-1.3-0.2-1.7-0.5c-0.3-0.3-0.4-0.7-0.4-1.2
		c0-0.5,0.2-0.9,0.5-1.2c0.4-0.3,0.9-0.5,1.5-0.5h1.8v-0.6c0-0.9-0.5-1.3-1.5-1.3c-0.7,0-1.2,0.2-1.5,0.7l-0.6-0.5
		c0.3-0.3,0.6-0.6,0.9-0.7c0.3-0.1,0.7-0.2,1.2-0.2c1.6,0,2.4,0.7,2.4,2V153.8z M86.8,151.7V151h-1.7c-0.9,0-1.3,0.3-1.3,1
		c0,0.7,0.5,1,1.4,1c0.6,0,1-0.1,1.3-0.4C86.7,152.5,86.8,152.2,86.8,151.7z"/>
	<path fill="#FFFFFF" d="M94,152c0,0.6-0.2,1-0.7,1.3c-0.4,0.3-1,0.5-1.7,0.5c-1,0-1.8-0.3-2.4-0.9l0.6-0.6c0.4,0.5,1,0.7,1.8,0.7
		c1,0,1.6-0.3,1.6-1c0-0.5-0.3-0.8-1-0.9l-1-0.1c-1.2-0.1-1.8-0.6-1.8-1.6c0-0.5,0.2-0.9,0.6-1.3c0.4-0.3,0.9-0.5,1.6-0.5
		c0.9,0,1.6,0.2,2.1,0.6l-0.6,0.6c-0.4-0.3-0.9-0.5-1.6-0.5c-0.9,0-1.3,0.3-1.3,1c0,0.5,0.3,0.8,1,0.9l0.9,0.1
		C93.5,150.5,94,151.1,94,152z"/>
	<path fill="#FFFFFF" d="M100,153.8h-0.9v-0.6c-0.4,0.4-1,0.6-1.7,0.6c-0.8,0-1.3-0.2-1.7-0.5c-0.3-0.3-0.4-0.7-0.4-1.2
		c0-0.5,0.2-0.9,0.5-1.2c0.4-0.3,0.9-0.5,1.5-0.5h1.8v-0.6c0-0.9-0.5-1.3-1.5-1.3c-0.7,0-1.2,0.2-1.5,0.7l-0.6-0.5
		c0.3-0.3,0.6-0.6,0.9-0.7c0.3-0.1,0.7-0.2,1.2-0.2c1.6,0,2.4,0.7,2.4,2V153.8z M99.1,151.7V151h-1.7c-0.9,0-1.3,0.3-1.3,1
		c0,0.7,0.5,1,1.4,1c0.6,0,1-0.1,1.3-0.4C99,152.5,99.1,152.2,99.1,151.7z"/>
	<path fill="#FFFFFF" d="M106,148.3l-0.6,0.6c-0.3-0.3-0.6-0.4-1-0.4c-0.4,0-0.8,0.1-1,0.5c-0.3,0.3-0.4,0.7-0.4,1.1v3.6H102v-5.9
		h0.9v0.7c0.3-0.5,0.9-0.8,1.7-0.8C105.1,147.8,105.6,148,106,148.3z"/>
	<path fill="#FFFFFF" d="M111.2,147.9l-2.7,7.3c-0.1,0.3-0.3,0.5-0.4,0.7c-0.3,0.3-0.7,0.4-1.2,0.4h-0.4v-0.8h0.3
		c0.3,0,0.5-0.1,0.6-0.2s0.2-0.3,0.3-0.6l0.4-1.2l-2.1-5.8h0.9l1.6,4.7l1.6-4.7H111.2z"/>
	<path fill="#FFFFFF" d="M117.4,153.8h-1.1l-1.9-3l-1.2,1.3v1.7h-0.9v-8.5h0.9v5.7l2.7-3.1h1.1l-2,2.3L117.4,153.8z"/>
</g>
<g>
	<path fill="#FFFFFF" d="M151.5,55.6l-0.4-0.8L157,52l-5.7,0l-0.3-0.7l3.7-4.3l-5.9,2.7l-0.4-0.8l7.8-3.5l0.4,0.8l-4.4,5l6.6,0
		l0.4,0.8L151.5,55.6z"/>
	<path fill="#FFFFFF" d="M154.2,61.5l-0.4-0.8l0.5-0.2c-0.6-0.2-1-0.6-1.3-1.3c-0.3-0.7-0.4-1.3-0.2-1.7c0.2-0.4,0.5-0.7,0.9-0.9
		c0.5-0.2,0.9-0.2,1.4,0c0.4,0.2,0.8,0.6,1,1.2l0.7,1.6l0.5-0.2c0.8-0.4,1-1,0.6-1.9c-0.3-0.6-0.7-1-1.2-1.1l0.2-0.8
		c0.4,0.1,0.7,0.3,1,0.5c0.2,0.2,0.5,0.6,0.7,1c0.7,1.4,0.4,2.4-0.8,3L154.2,61.5z M155.8,59.9l0.6-0.3l-0.7-1.5
		c-0.4-0.8-0.9-1.1-1.5-0.8c-0.6,0.3-0.7,0.8-0.4,1.7c0.3,0.6,0.6,0.9,0.9,1C155,60.1,155.3,60.1,155.8,59.9z"/>
	<path fill="#FFFFFF" d="M161.7,64.7l-0.9-0.3c0.1-0.4,0.1-0.8,0-1.1c-0.2-0.4-0.5-0.6-0.8-0.7c-0.4-0.1-0.8-0.1-1.2,0.1l-3.3,1.5
		l-0.4-0.8l5.4-2.4l0.4,0.8l-0.7,0.3c0.6,0.1,1.1,0.5,1.4,1.2C161.8,63.8,161.8,64.3,161.7,64.7z"/>
	<path fill="#FFFFFF" d="M164.5,65.7l-0.4-0.9l0.9-0.4l0.4,0.9L164.5,65.7z M157.5,68.8l-0.4-0.8l5.4-2.4l0.4,0.8L157.5,68.8z"/>
	<path fill="#FFFFFF" d="M160.2,74.6l-0.4-0.8l0.5-0.2c-0.6-0.2-1-0.6-1.3-1.3c-0.3-0.7-0.4-1.3-0.2-1.7c0.2-0.4,0.5-0.7,0.9-0.9
		c0.5-0.2,0.9-0.2,1.4,0c0.4,0.2,0.8,0.6,1,1.2l0.7,1.6l0.5-0.2c0.8-0.4,1-1,0.6-1.9c-0.3-0.6-0.7-1-1.2-1.1l0.2-0.8
		c0.4,0.1,0.7,0.3,1,0.5c0.2,0.2,0.5,0.6,0.7,1c0.7,1.4,0.4,2.4-0.8,3L160.2,74.6z M161.7,73l0.6-0.3l-0.7-1.5
		c-0.4-0.8-0.9-1.1-1.5-0.8c-0.6,0.3-0.7,0.8-0.4,1.7c0.3,0.6,0.6,0.9,0.9,1C160.9,73.2,161.3,73.2,161.7,73z"/>
	<path fill="#FFFFFF" d="M163,80.7l-0.4-0.8l3.3-1.5c1-0.4,1.2-1.1,0.8-2c-0.2-0.4-0.5-0.7-0.8-0.8c-0.4-0.1-0.8-0.1-1.2,0.1
		l-3.3,1.5l-0.4-0.8l5.4-2.4l0.4,0.8l-0.6,0.3c0.6,0.2,1.1,0.6,1.3,1.2c0.3,0.6,0.3,1.1,0.1,1.6c-0.2,0.5-0.6,0.9-1.2,1.2L163,80.7z
		"/>
	<path fill="#FFFFFF" d="M168.4,85.5c-1,0.4-1.8,0.6-2.4,0.3c-0.6-0.2-1-0.6-1.3-1.3c-0.3-0.6-0.3-1.2-0.1-1.8
		c0.2-0.6,0.9-1.2,1.8-1.6c1-0.4,1.8-0.6,2.4-0.3c0.6,0.2,1,0.6,1.3,1.3c0.3,0.6,0.3,1.2,0.1,1.8C170,84.5,169.4,85.1,168.4,85.5z
		 M168.1,84.8c0.8-0.4,1.3-0.8,1.5-1.2c0.1-0.4,0.1-0.8-0.1-1.2c-0.2-0.4-0.5-0.6-0.8-0.8c-0.4-0.2-1-0.1-1.9,0.3
		c-0.8,0.4-1.3,0.8-1.5,1.2c-0.1,0.4-0.1,0.8,0,1.2c0.2,0.4,0.5,0.7,0.9,0.8C166.6,85.2,167.2,85.1,168.1,84.8z"/>
	<path fill="#FFFFFF" d="M170,96.1l-2.2-4.8l7.8-3.5l2.2,4.8l-0.7,0.3l-1.8-4l-2.7,1.2l1.6,3.4l-0.7,0.3l-1.6-3.4l-2.8,1.3l1.8,4
		L170,96.1z"/>
	<path fill="#FFFFFF" d="M174.1,100.9c-0.5,0.2-1,0.2-1.5,0c-0.5-0.3-0.9-0.7-1.2-1.4c-0.4-0.9-0.5-1.8-0.2-2.6l0.8,0.3
		c-0.2,0.6-0.2,1.2,0.1,2c0.4,1,1,1.3,1.6,1c0.5-0.2,0.6-0.6,0.4-1.3l-0.3-0.9c-0.4-1.1-0.2-1.9,0.7-2.3c0.5-0.2,0.9-0.2,1.4,0
		c0.4,0.2,0.8,0.6,1.1,1.2c0.4,0.8,0.5,1.5,0.3,2.2l-0.7-0.3c0.1-0.5,0-1-0.2-1.6c-0.4-0.8-0.8-1.1-1.4-0.8
		c-0.5,0.2-0.6,0.6-0.4,1.3l0.3,0.9C175.2,99.7,174.9,100.5,174.1,100.9z"/>
	<path fill="#FFFFFF" d="M175.7,106.7c-0.4-0.1-0.8-0.3-1-0.5c-0.2-0.2-0.4-0.5-0.6-0.9c-0.3-0.7-0.3-1.4-0.1-2
		c0.3-0.7,0.9-1.2,1.8-1.6c0.9-0.4,1.7-0.5,2.4-0.3c0.7,0.2,1.1,0.7,1.5,1.4c0.2,0.4,0.3,0.7,0.3,1c0,0.3-0.1,0.7-0.3,1.1l-0.7-0.3
		c0.2-0.5,0.2-1,0-1.5c-0.2-0.5-0.6-0.9-1.2-1c-0.4-0.1-1,0-1.6,0.3c-0.6,0.3-1.1,0.6-1.3,1c-0.3,0.5-0.3,1,0,1.5
		c0.2,0.5,0.6,0.8,1.2,1L175.7,106.7z"/>
	<path fill="#FFFFFF" d="M180.2,111.4c-1,0.4-1.8,0.6-2.4,0.3c-0.6-0.2-1-0.6-1.3-1.3c-0.3-0.6-0.3-1.2-0.1-1.8
		c0.2-0.6,0.9-1.2,1.8-1.6c1-0.4,1.8-0.6,2.4-0.3c0.6,0.2,1,0.6,1.3,1.3c0.3,0.6,0.3,1.2,0.1,1.8
		C181.8,110.4,181.2,110.9,180.2,111.4z M179.8,110.6c0.8-0.4,1.3-0.8,1.5-1.2c0.1-0.4,0.1-0.8-0.1-1.2c-0.2-0.4-0.5-0.6-0.8-0.8
		c-0.4-0.2-1-0.1-1.9,0.3c-0.8,0.4-1.3,0.8-1.5,1.2c-0.1,0.4-0.1,0.8,0,1.2c0.2,0.4,0.5,0.7,0.9,0.8
		C178.4,111.1,179,111,179.8,110.6z"/>
	<path fill="#FFFFFF" d="M182.9,117.3c-1.1,0.5-1.9,0.6-2.6,0.4c-0.5-0.2-0.8-0.5-1.1-1.1c-0.3-0.6-0.3-1.3,0-1.8l-0.6,0.3l-0.4-0.8
		l7.8-3.5l0.4,0.8l-3,1.4c0.6,0.1,1.1,0.5,1.4,1.2c0.3,0.6,0.3,1.1,0.1,1.5C184.6,116.3,184,116.8,182.9,117.3z M182.5,116.5
		c0.6-0.3,1.1-0.6,1.3-0.9c0.3-0.4,0.4-0.9,0.1-1.4c-0.2-0.5-0.6-0.8-1.1-0.8c-0.4,0-0.9,0.1-1.5,0.4c-0.6,0.3-1.1,0.6-1.3,0.9
		c-0.3,0.4-0.4,0.9-0.1,1.4c0.2,0.5,0.6,0.8,1.1,0.8C181.4,117,181.9,116.8,182.5,116.5z"/>
	<path fill="#FFFFFF" d="M185.3,123.2l-1.7-3.6c-0.6,0.3-1,0.6-1.2,1c-0.2,0.4-0.2,0.9,0.1,1.4c0.2,0.5,0.7,0.9,1.2,1.1l-0.2,0.7
		c-0.4-0.2-0.8-0.3-1-0.6c-0.3-0.3-0.5-0.6-0.7-1c-0.3-0.7-0.4-1.4-0.1-2c0.3-0.6,0.9-1.2,1.8-1.6c0.9-0.4,1.6-0.5,2.3-0.3
		c0.7,0.2,1.2,0.6,1.5,1.3c0.3,0.7,0.3,1.3,0,1.9c-0.3,0.6-0.8,1.1-1.6,1.4L185.3,123.2z M185.6,122.2c0.4-0.2,0.6-0.4,0.8-0.6
		c0.4-0.5,0.5-1,0.2-1.6c-0.3-0.6-0.7-0.9-1.4-0.9c-0.3,0-0.6,0.1-1,0.2L185.6,122.2z"/>
	<path fill="#FFFFFF" d="M185.4,130l-0.4-0.8l0.6-0.3c-0.6-0.1-1.1-0.5-1.4-1.2c-0.3-0.6-0.3-1.1-0.1-1.5c0.2-0.6,0.9-1.2,2-1.7
		c1.1-0.5,1.9-0.6,2.6-0.4c0.5,0.2,0.8,0.5,1.1,1.1c0.3,0.7,0.3,1.3,0,1.8l3-1.4l0.4,0.8L185.4,130z M187.8,128
		c0.6-0.3,1.1-0.6,1.3-0.9c0.3-0.4,0.4-0.9,0.1-1.4c-0.2-0.5-0.6-0.8-1.1-0.8c-0.4,0-0.9,0.1-1.5,0.4c-0.6,0.3-1.1,0.6-1.3,0.9
		c-0.3,0.4-0.4,0.9-0.1,1.4c0.2,0.5,0.6,0.8,1.1,0.8C186.6,128.4,187.1,128.3,187.8,128z"/>
	<path fill="#FFFFFF" d="M190.9,134.8c-1,0.4-1.8,0.6-2.4,0.3c-0.6-0.2-1-0.6-1.3-1.3c-0.3-0.6-0.3-1.2-0.1-1.8
		c0.2-0.6,0.9-1.2,1.8-1.6c1-0.4,1.8-0.6,2.4-0.3c0.6,0.2,1,0.6,1.3,1.3c0.3,0.6,0.3,1.2,0.1,1.8
		C192.5,133.9,191.9,134.4,190.9,134.8z M190.5,134.1c0.8-0.4,1.3-0.8,1.5-1.2c0.1-0.4,0.1-0.8-0.1-1.2c-0.2-0.4-0.5-0.6-0.8-0.8
		c-0.4-0.2-1-0.1-1.9,0.3c-0.8,0.4-1.3,0.8-1.5,1.2c-0.1,0.4-0.1,0.8,0,1.1c0.2,0.4,0.5,0.7,0.9,0.8
		C189.1,134.5,189.7,134.4,190.5,134.1z"/>
</g>
</svg>
