<?xml version="1.0" encoding="utf-8"?>
<!-- Generator: Adobe Illustrator 18.1.0, SVG Export Plug-In . SVG Version: 6.00 Build 0)  -->
<svg version="1.1" id="Layer_1_copy" xmlns="http://www.w3.org/2000/svg" xmlns:xlink="http://www.w3.org/1999/xlink" x="0px"
	 y="0px" viewBox="0 0 126 104" enable-background="new 0 0 126 104" xml:space="preserve">
<g>
	<path fill="#FFFFFF" d="M36.6,95.3c-17.3,0-31.4-14.1-31.4-31.4c0-17.3,14.1-31.4,31.4-31.4C53.9,32.5,68,46.5,68,63.9
		C68,81.2,53.9,95.3,36.6,95.3z M36.6,36.5c-15.1,0-27.4,12.3-27.4,27.4s12.3,27.4,27.4,27.4C51.7,91.3,64,79,64,63.9
		S51.7,36.5,36.6,36.5z"/>
	<path fill="#FFFFFF" d="M114.2,12.3H36.4v4h21.2l-2.7,19.5c1.3,0.8,2.5,1.7,3.7,2.7l3.1-22.2h24.5l10.5,75.6l4-0.6l-10.4-75h24
		V12.3z"/>
</g>
</svg>
