<?xml version="1.0" encoding="utf-8"?>
<!-- Generator: Adobe Illustrator 18.1.0, SVG Export Plug-In . SVG Version: 6.00 Build 0)  -->
<svg version="1.1" id="Layer_1" xmlns="http://www.w3.org/2000/svg" xmlns:xlink="http://www.w3.org/1999/xlink" x="0px" y="0px"
	 viewBox="0 0 20 20" enable-background="new 0 0 20 20" xml:space="preserve">
<g>
	<rect x="0.2" y="0.1" fill="#FFFFFF" width="19.6" height="19.6"/>
</g>
<path fill="#231F20" d="M7.6,16.7c-0.3,0-0.6,0-0.8,0c0,0,0,0,0,0c-0.2,0-0.3,0-0.5,0c-0.3,0-0.6-0.1-0.9-0.1
	c-0.5-0.1-1-0.2-1.4-0.4c-0.6-0.2-1.2-0.5-1.8-0.9c0,0-0.1,0-0.1-0.1c0.9,0.1,1.7,0,2.6-0.2c0.8-0.2,2.1-0.9,2.3-1.2
	c-0.3,0-0.7-0.1-1-0.2c-1-0.4-1.7-1-2-2c0-0.1,0-0.1,0.1-0.1c0.1,0,0.3,0,0.4,0c0.3,0,0.6,0,0.9-0.1c0,0,0.1,0,0.1,0
	c-1.8-0.4-2.7-2-2.6-3.3c0.5,0.2,0.9,0.4,1.5,0.4c0,0,0,0,0,0c0,0,0,0,0,0C3.8,8.3,3.6,8.1,3.3,7.8c-0.4-0.6-0.6-1.2-0.7-2
	c0-0.2,0-0.3,0-0.5c0.1-0.4,0.2-0.8,0.4-1.1c0,0,0,0,0.1,0C3.4,4.5,3.7,4.7,3.9,5c0.7,0.6,1.4,1.2,2.2,1.6c0.6,0.3,1.2,0.5,1.8,0.7
	c0.3,0.1,0.6,0.1,0.8,0.2c0.2,0,0.4,0.1,0.6,0.1c0.2,0,0.4,0,0.5,0.1c0,0,0.1,0,0-0.1C9.9,7.3,9.9,7,9.9,6.7c0-0.1,0-0.3,0-0.4
	c0.1-0.3,0.2-0.7,0.3-1c0.2-0.4,0.5-0.8,0.8-1c0.2-0.2,0.4-0.3,0.7-0.5c0.3-0.1,0.6-0.2,0.8-0.3c0.1,0,0.2,0,0.3-0.1
	c0.2,0,0.4,0,0.5,0c0,0,0,0,0.1,0c0.8,0.1,1.5,0.4,2.1,1c0,0,0.1,0.1,0.1,0c0.7-0.1,1.3-0.4,1.9-0.7c0,0,0,0,0.1,0
	c-0.3,0.8-0.7,1.4-1.4,1.8c0.5-0.1,0.9-0.2,1.4-0.3c0.2-0.1,0.3-0.1,0.5-0.2c0,0,0,0,0,0c0,0,0,0,0,0c-0.4,0.6-1,1.2-1.6,1.6
	c0,0,0,0.1,0,0.1c0,0.2,0,0.5,0,0.7c0,0.9-0.2,1.7-0.4,2.5c-0.5,1.6-1.4,3-2.6,4.2c-1.6,1.5-3.5,2.2-5.7,2.4
	C7.7,16.7,7.6,16.7,7.6,16.7z"/>
</svg>
